<?xml version="1.0" encoding="UTF-8"?>
<svg id="Layer_2" data-name="Layer 2" xmlns="http://www.w3.org/2000/svg" viewBox="0 0 124.97 160">
  <defs>
    <style>
      .cls-1 {
        fill: #edcf85;
        stroke-width: 0px;
      }
    </style>
  </defs>
  <g id="Layer_1-2" data-name="Layer 1">
    <g>
      <path class="cls-1" d="m60.62,111.36c-.73-.09-1.09.36-1.09.91-.09.45.18,1.09.91,1.09.73.09,1.09-.36,1.18-.91,0-.45-.18-1-1-1.09Z"/>
      <polygon class="cls-1" points="64.07 45.38 63.98 45.38 62.98 48.19 64.89 48.19 64.07 45.38"/>
      <path class="cls-1" d="m73.51,110.45c-.18-.27-.45-.64-1-.45-.54.18-.91.54-.36,2.45.45,1.27.82,1.91,1.54,1.63.36-.09.54-.27.64-.54.09-.55-.18-1.54-.27-1.72-.09-.27-.27-1-.54-1.36Z"/>
      <polygon class="cls-1" points="91.75 65.25 93.75 63.16 93.75 63.07 90.84 63.62 91.75 65.25"/>
      <polygon class="cls-1" points="88.49 101.01 91.3 101.92 89.66 99.47 88.49 101.01"/>
      <path class="cls-1" d="m58.08,66.8s-.09,0-.09-.09c0,.09-.09,0-.09,0-.09,0-.18.09-.18,0h-.18l-.18-.09h-.18q0-.09-.09,0c0-.09-.18,0-.18,0-.09,0-.27.09-.36,0l-.09.09c0-.09-.18.09-.18.09-.09,0-.09-.09-.18-.09v-.09l-.18.09-.09-.09s-.18.09-.27.09c0-.09-.18,0-.18,0l-.09-.09s-.36,0-.36.09v.09l-.09.09h.27c.09,0,.09-.09.18-.09-.09.09-.18.18-.27.27-.09-.09-.09,0-.09-.09h-.18v-.09h-.09c.09,0,.09-.09.09-.09v-.09h.09c0-.09.09-.27.18-.27v-.09c-.09,0-.18-.09-.18-.09l-.09-.09v-.09c0-.09-.09-.09-.09-.09v-.09h-.09v.09s0,.09-.09.09v.09h-.09v.18h-.09s0,.09-.09.09l-.18.09c-.09-.09-.27.09-.36.09v.09h-.09v.09c-.09.09-.18.09-.18.18h-.09s-.09.09-.18.09c-.09-.09-.09-.18-.09-.09v-.09l-.09-.18c.09,0,.09-.18.18-.18l-.09-.09v-.09c-.09.09-.18,0-.18,0l-.09.09s-.09,0-.09.09v.09l-.64.27c-.09,0,0,.09,0,.09v.09h.18c.09.09,0,.18,0,.27,0,0-.09,0-.09.09-.09.18-.54.09-.64.09-.09-.09-.36.09-.54.09l.09.09v.09l.09-.09v.09l-.09.09h-.09v.09h.09l.09.09h.09v.27c0,.09-.09.36-.09.45l-.27.09v.09c-.09,0-.18.09-.27.09v.09c-.09.18,0,.09-.09.36v.36c.09,0,.09.09.09.09h.09c.09,0,.09.09.09,0,0,.09.09,0,.18,0l.18-.09v.09c.09,0,.09.09.09.09h.09s.18,0,.27-.09l.09-.09.09-.09c0-.09.09-.09.09-.09v-.09c.09,0,.18,0,.27-.09v.09l.09.18h.09v.09h.09l.18.09h.18c0,.09.09,0,.09.09q0-.09.09,0c.09-.09.27-.09.36-.09v.27h.36v.09c.09.18.18.27.18.45.09,0,.09.36.09.45h.36s.09,0,.09.09l.09.18h.18v.18c.09,0,.09.09.18.09,0,0,0,.09.09,0v.18c-.09,0-.09.09-.09.09,0,.09-.09.09-.09.09l-.09.09c-.09,0,0,.18-.09.18v.09h-.09q0,.09-.09.09l-.09.09c.09,0-.09.09-.09.18h.64v.09c.09,0,.27.09.18.18v.09l.09-.09v-.18c.09,0,.09-.18.09-.27v-.09h.09v.18h.09v-.09l.09-.09.09-.09v-.09s0-.09.09-.09v-.09q0-.09.09-.09v-.73c.09,0,.09-.09.09-.09v-.09s.09,0,.09-.09h.09q0-.09.09-.09c0-.09.27-.18.27-.27l.18-.09c0-.09.36-.09.36-.09,0-.09.09-.09.09-.09,0-.09.09-.09.09-.09v-.18h.09l-.09-.09h.09q0-.09.09-.18v-.09h.09v-.36c0-.18.09-.27.09-.36.09-.09,0-.27,0-.36v-.36l.18-.09.09-.09v-.09c.09,0,.09-.09.09-.09,0-.09.09-.18.09-.18v-.09h.09v-.09c.09,0,.09-.09.09-.18.18,0,.09-.54.09-.64,0,0,0-.09-.09-.09Z"/>
      <path class="cls-1" d="m88.94,56.54l-1.27,1.18.54.64c.36.36.82.91,1.54.36.54-.54.18-1.09-.18-1.54l-.64-.64Z"/>
      <path class="cls-1" d="m30.49,75.14c1,.18,2.09.09,2.36-1.18.36-1.36-.82-1.81-1.72-2-.91-.18-1.36-.09-1.72.09-.45.18-.63.54-.73,1-.27,1.27.73,1.82,1.82,2.09Z"/>
      <path class="cls-1" d="m94.33,47.85s.07-.07.11-.1c.44-.41.77-.7.84-.74,0,0,0,0,.01,0l.54-.18c.31-.09.6-.18.92-.26.04,0,.08-.02.12-.03.05-.01.11-.02.16-.04.04,0,.09-.02.13-.03.23-.04.47-.08.76-.11,1.09-.18,1.72-.09,2.54,0,.06,0,.12.02.18.03.06,0,.12.02.19.03.08.01.17.02.26.03.06,0,.11.01.17.02s.12.01.17.02c.06,0,.12.01.18.02.11,0,.23.02.34.02.05,0,.11,0,.16,0,.11,0,.22,0,.34.01.05,0,.09,0,.14,0,.07,0,.14,0,.22,0,1.09,0,2.9-.54,3.27-1.09l18.88-15.97-.09-.09c-3.12-4.62-5.98-8.03-9.47-11.28-.16-.15-.32-.29-.48-.44-.16-.15-.32-.29-.49-.44-.16-.15-.33-.29-.5-.44-.25-.22-.51-.44-.76-.66-.59-.5-1.2-1.01-1.84-1.52-.09-.08-.19-.15-.29-.23-.07-.06-.14-.12-.22-.17-.22-.17-.44-.35-.66-.52l-.09-.09-.09.09h0s-16.43,19.06-16.43,19.06c-.06.03-.12.08-.18.14-.02.02-.03.03-.05.05-.02.03-.04.05-.07.08-.01.02-.03.04-.04.05-.04.06-.09.13-.13.2-.02.03-.03.05-.05.08-.1.19-.2.41-.28.64-.02.06-.04.13-.06.19-.02.06-.04.11-.05.17-.01.04-.02.08-.04.12-.05.16-.08.33-.12.49,0,.04-.02.07-.02.11,0,.04-.01.07-.02.11-.02.12-.04.23-.05.34,0,.03,0,.05,0,.08,0,.03,0,.05,0,.08,0,.03,0,.06,0,.09,0,.02,0,.03,0,.04,0,.07,0,.13,0,.19h0c-.09,1,0,1.64.09,2.27,0,.91.09,1.54-.09,2.63l-.09.45c-.09.82-.18,1.36-.64,2.18l-2.46,2.39s-.01,0-.02,0c-.02,0-.05,0-.07,0,0,0,0,0-.01,0,0,0-.01,0-.02,0-.01,0-.02,0-.04,0,0,0-.01,0-.02,0,0,0-.01,0-.02,0h0s0,0,0,0c0,0,0,0-.01,0h0s0,0,0,0c0,0-.01,0-.02,0,0,0-.02,0-.03,0,0,0-.01,0-.02,0,0,0-.01,0-.02,0,0,0-.02,0-.03,0,0,0,0,0-.01,0h0s-.01,0-.02,0c-.01,0-.02,0-.03,0,0,0,0,0-.01,0-.03,0-.06,0-.09,0h0s0,0,0,0h-.03v-.09s0-.02,0-.03c0,0,0-.01,0-.02s0-.01,0-.02c0-.01,0-.02,0-.03,0,0,0,0,0,0,0-.02-.02-.04-.03-.06,0,0,0,0,0,0,0,0,0-.02-.01-.02,0-.01-.01-.02-.02-.03,0-.01-.01-.02-.02-.03,0-.01-.01-.02-.02-.03-.02-.02-.03-.04-.05-.05-.01-.01-.02-.03-.03-.04-.01-.01-.02-.02-.03-.03-.01-.01-.03-.03-.04-.04,0,0-.01-.01-.02-.02-.01-.01-.03-.03-.04-.05,0,0,0,0,0,0h0s-.02-.03-.03-.04h0s-.02-.04-.04-.05c0-.01-.02-.02-.02-.03-.01-.02-.03-.04-.04-.06-.02-.02-.03-.05-.05-.07,0-.01-.02-.03-.03-.04,0,0,0-.01-.01-.01-.02-.03-.04-.06-.07-.09-.02-.02-.03-.04-.05-.07-.02-.03-.05-.06-.07-.09-.02-.03-.05-.06-.08-.1h0s-.04-.05-.07-.08c0,0-.01-.01-.02-.02-.02-.02-.04-.04-.05-.06-.15-.17-.31-.36-.51-.54-.03-.03-.06-.06-.09-.09-.03-.02-.05-.05-.08-.07,0,0-.01-.01-.02-.02-.03-.03-.06-.05-.09-.08-.03-.03-.07-.06-.11-.09-.05-.04-.09-.08-.14-.12-.04-.03-.07-.06-.11-.09-.05-.04-.1-.08-.16-.12-.05-.03-.09-.07-.14-.1-.03-.02-.06-.04-.08-.06-.01,0-.02-.02-.04-.02-.04-.02-.07-.05-.11-.07,0,0,0,0,0,0-.04-.03-.09-.05-.13-.08,0,0,0,0-.01,0,0,0,0,0,0,0-.05-.03-.1-.06-.15-.08,0,0-.02-.01-.03-.02-.05-.02-.09-.05-.14-.07-.03-.01-.05-.03-.08-.04-.04-.02-.07-.04-.11-.05-.02-.01-.04-.02-.07-.03,0,0-.01,0-.02-.01-.04-.02-.07-.03-.11-.05-.02,0-.04-.02-.05-.02-.01,0-.02,0-.03-.01-.05-.02-.1-.04-.15-.06-.08-.02-.16-.04-.23-.06-.04-.01-.07-.02-.11-.03-.14-.04-.28-.07-.42-.1-.08-.02-.16-.03-.23-.05-.07-.01-.13-.03-.2-.04-.16-.03-.31-.06-.45-.09v-.09s0-.03,0-.05c0,0,0,0,0,0,0-.01,0-.02,0-.04,0,0,0,0,0-.01,0-.01,0-.02,0-.03,0,0,0-.01,0-.02,0-.01-.01-.03-.02-.04,0,0,0,0,0,0,0,0,0,0,0,0,0-.01-.01-.02-.02-.03-.02-.02-.03-.05-.05-.07h0s-.02-.02-.03-.03h0s0,0,0,0c-.01,0-.02-.02-.03-.03h0s0,0,0,0c-.01,0-.02-.02-.04-.02-.01,0-.03-.02-.04-.02-.01,0-.03-.01-.04-.02-.01,0-.03,0-.04-.01h0s-.02,0-.04,0c0,0-.01,0-.02,0,0,0,0,0-.01,0-.02,0-.03,0-.04,0h0s-.02-.03-.04-.05c-.01-.01-.02-.02-.04-.04-.02-.02-.04-.04-.07-.07,0,0-.02-.02-.03-.03,0,0-.02-.02-.03-.03,0-.01-.02-.02-.03-.03-.03-.03-.07-.07-.11-.1-.02-.02-.04-.04-.07-.06-.03-.02-.05-.05-.08-.07-.06-.05-.12-.1-.18-.16-.15-.12-.31-.25-.5-.39-.08-.06-.17-.12-.26-.18-.06-.04-.12-.08-.19-.12-.03-.02-.05-.03-.08-.05,0,0-.02-.01-.02-.01-.05-.03-.1-.06-.15-.09-.05-.03-.11-.06-.16-.08,0,0-.01,0-.02-.01-.04-.02-.09-.05-.14-.07-.06-.03-.12-.06-.18-.08-.04-.02-.08-.03-.12-.05,0,0-.02,0-.03-.01-.02,0-.03-.02-.05-.02-.02,0-.03-.01-.05-.02-.04-.02-.07-.03-.11-.04-.05-.02-.09-.03-.14-.05-.02,0-.05-.02-.07-.02,0,0,0,0-.01,0h0s-.02,0-.02,0c-.04-.01-.08-.03-.13-.04,0,0,0,0,0,0,0,0-.01,0-.02,0-.04-.01-.07-.02-.11-.03,0,0,0,0-.01,0,0,0-.02,0-.03,0-.01,0-.02,0-.03,0-.02,0-.04-.01-.05-.01,0,0,0,0-.01,0-.01,0-.02,0-.03,0h0s0,0-.01,0c-.02,0-.04-.01-.06-.01,0,0-.02,0-.02,0,0,0-.01,0-.02,0-.03,0-.07-.02-.1-.02,0,0-.02,0-.02,0-.02,0-.04,0-.06-.01-.07-.01-.14-.03-.21-.04-.11-.01-.22-.02-.33-.03-.11,0-.21-.02-.3-.02-.1,0-.19-.01-.28-.01-.18,0-.35,0-.51,0-.08,0-.16,0-.23.01-.07,0-.15.01-.22.02-.07,0-.14.02-.21.03h0s0-.07-.02-.1c0,0,0-.01,0-.02h0s0-.02-.01-.02c0,0,0-.01-.01-.02-.02-.04-.05-.07-.08-.1l-.02-.02s-.02-.02-.03-.02c-.02-.01-.03-.03-.05-.04,0,0,0,0,0,0,0,0,0,0,0,0,0,0-.02-.01-.02-.01,0,0-.02-.01-.03-.01h0s-.03-.02-.04-.02c0,0-.02,0-.03-.01,0,0-.02,0-.02,0,0,0-.02,0-.02,0-.02,0-.04-.01-.05-.02-.01,0-.03,0-.04,0,0,0-.02,0-.02,0-.01,0-.02,0-.03,0,0,0-.01-.01-.02-.02,0,0-.01,0-.02-.01,0,0,0,0-.01-.01,0,0-.01,0-.02-.02,0,0,0,0-.01,0-.01-.01-.03-.03-.05-.04-.03-.02-.06-.05-.1-.07-.02-.01-.03-.03-.05-.04,0,0,0,0-.01-.01h0s-.05-.04-.08-.05c-.01,0-.03-.02-.04-.03-.1-.07-.21-.14-.34-.22-.05-.03-.11-.07-.17-.1-.06-.03-.12-.07-.19-.1-.06-.03-.12-.06-.18-.09-.03-.02-.06-.03-.1-.05-.03-.02-.06-.03-.1-.05-.07-.03-.14-.06-.21-.09-.04-.02-.07-.03-.11-.04-.04-.02-.07-.03-.11-.04-.11-.04-.22-.08-.33-.12-.14-.05-.29-.09-.44-.13-.04-.01-.08-.02-.12-.03,0,0,0,0,0,0-.05-.01-.11-.02-.16-.04-.06-.01-.12-.02-.18-.03-.01,0-.03,0-.04,0-.05,0-.1-.02-.15-.02-.01,0-.02,0-.03,0-.05,0-.11-.02-.16-.02-.02,0-.04,0-.06,0-.06,0-.11-.01-.17-.02h0s0,0-.01,0c-.06,0-.12,0-.17,0h0s-.03,0-.04,0c-.01,0-.02,0-.03,0-.05,0-.1,0-.16,0-.03,0-.07,0-.1,0-.03,0-.06,0-.09,0-.04,0-.08,0-.12,0-.03,0-.06,0-.09,0-.03,0-.05,0-.08,0-.03,0-.05,0-.08,0-.05,0-.09,0-.14.01-.05,0-.09,0-.14.01-.03,0-.06,0-.08,0-.02,0-.04,0-.06,0-.02,0-.04,0-.06,0-.04,0-.08.01-.12.02-.03,0-.05,0-.08.01-.05,0-.1.02-.15.03-.05,0-.09.02-.14.03-.05.01-.11.03-.16.04-.04.01-.09.02-.13.04-.09.03-.18.05-.26.08-.08.03-.17.06-.25.09-.04.02-.08.03-.12.05,0-.36-.45-.45-.64-.45,0,0,0-.01,0-.02,0,0,0,0,0-.01,0,0,0,0,0,0,0,0,0-.01-.01-.02,0,0,0,0-.01-.01,0,0-.01-.01-.02-.02-.01-.01-.03-.02-.05-.03-.02-.01-.05-.02-.07-.04,0,0-.02,0-.03-.01-.01,0-.02,0-.03-.01-.02,0-.05-.02-.07-.03h0s-.05-.02-.08-.03c-.01,0-.03,0-.04-.01-.02,0-.03,0-.05-.01-.02,0-.04-.01-.07-.02v-.18s0-.05,0-.07c0-.01,0-.02,0-.03,0-.02,0-.05,0-.07,0-.01,0-.02,0-.03,0-.01,0-.02,0-.03,0,0,0-.02,0-.03,0-.02,0-.03,0-.05h0s0,0,0,0c0-.01,0-.03,0-.04,0-.02,0-.03,0-.05h0s0,0,0,0c0,0,0,0,0-.01,0,0,0,0,0-.01,0,0,0,0,0-.01,0,0,0-.02,0-.03,0,0,0,0,0-.01,0-.01,0-.03,0-.04,0-.02,0-.04,0-.05,0,0,0-.02,0-.03,0,0,0-.02,0-.03,0-.02,0-.04-.01-.05,0,0,0,0,0,0,0-.02,0-.03-.01-.05,0,0,0,0,0-.01,0,0,0-.01,0-.01,0-.01,0-.02,0-.03,0,0,0-.02,0-.02,0,0,0,0,0-.01h0s0,0,0,0c0,0,0,0,0-.01,0,0,0,0,0,0h0s0,0,0,0c0-.02-.01-.05-.02-.07,0-.02,0-.03-.01-.05,0,0,0,0,0,0-.01-.04-.03-.09-.04-.13,0,0,0-.02,0-.03,0,0,0-.02,0-.03,0,0,0-.01,0-.02,0,0,0,0,0,0,0-.02-.01-.04-.02-.06,0-.01,0-.02-.01-.03,0,0,0,0,0-.01,0,0,0-.02,0-.02,0,0,0,0,0,0,0-.02-.01-.03-.02-.05,0,0,0-.01,0-.02,0-.02-.02-.04-.03-.06h0s0-.02-.01-.02c0,0,0-.01-.01-.02,0,0,0,0,0,0,0,0,0-.02-.01-.02v-.02s-.04-.05-.05-.07c0,0,0-.01-.01-.02h0s0,0,0,0c0,0,0,0,0,0,0,0,0,0,0,0,0,0,0,0,0,0,0,0,0,0,0,0h0s0,0,0-.01c.01-.04.02-.07.03-.11,0-.02.01-.04.02-.06.01-.03.02-.06.03-.09,0,0,0,0,0,0,0,0,0,0,0,0,0-.02.01-.03.02-.05,0-.01,0-.02,0-.03,0,0,0,0,0,0,0-.03.02-.05.03-.08,0-.03.02-.06.03-.08,0,0,0,0,0,0,0-.03.02-.05.03-.08,0,0,0,0,0,0,0-.02.02-.05.03-.07,0,0,0,0,0,0,.03-.08.06-.15.08-.22.02-.05.04-.11.06-.16.02-.04.04-.08.05-.12.02-.04.04-.08.05-.11,0,0,0,0,0,0,.03-.06.06-.11.08-.16,0,0,0,0,0,0,.02-.03.04-.06.05-.09t0,0s.04-.05.05-.07c.02-.02.04-.04.05-.06.02-.02.04-.03.05-.04.04-.02.07-.04.1-.04,6.26-.45,9.17-3.63,9.17-3.63,0,0,.18-6.62,0-6.81-.24-.19-.5-.38-.77-.56-.27-.18-.54-.35-.83-.52-.17-.1-.34-.19-.51-.29-.12-.07-.24-.13-.36-.19-.15-.08-.3-.15-.45-.23h0c-.07-.04-.15-.07-.23-.11h0c-.07-.04-.15-.07-.23-.11h0s-.08-.04-.12-.06c-.06-.03-.12-.05-.18-.08-.13-.06-.26-.12-.39-.17h0c-.08-.03-.15-.07-.23-.1-.05-.02-.11-.05-.16-.07-.18-.07-.35-.14-.53-.21-.15-.06-.31-.12-.46-.18-.23-.09-.45-.17-.68-.25h0c-.07-.03-.15-.05-.22-.08-.07-.03-.15-.05-.22-.08-.13-.04-.25-.09-.38-.13-.13-.04-.25-.08-.37-.12-.06-.02-.12-.04-.18-.06-.12-.04-.24-.07-.36-.11-.06-.02-.12-.04-.17-.05-.1-.03-.19-.06-.29-.09-.09-.03-.19-.06-.28-.08-.12-.04-.24-.07-.36-.1-.23-.06-.45-.12-.65-.17-.02,0-.05-.01-.07-.02-.12-.03-.24-.06-.35-.09-.04-.01-.09-.02-.13-.03-.06-.02-.12-.03-.18-.04-.13-.03-.25-.06-.35-.08-.03,0-.05-.01-.08-.02-.03,0-.05-.01-.07-.02-.08-.02-.14-.03-.18-.04-.01,0-.02,0-.03,0-.02,0-.03,0-.03,0,.26-.11.52-.24.76-.37.15-.08.29-.17.43-.25.09-.06.19-.12.28-.18.14-.09.27-.19.4-.29.13-.1.26-.21.39-.31.08-.07.17-.15.25-.22,1.85-1.72,2.93-4.21,2.93-7.08s-1.3-5.59-3.36-7.39c-.04-.04-.09-.08-.13-.12-.13-.11-.27-.22-.41-.33-.19-.14-.38-.28-.58-.41-.13-.09-.26-.17-.4-.25-.07-.04-.14-.08-.2-.12-.14-.08-.28-.15-.42-.22-.07-.04-.14-.07-.21-.1-.22-.1-.43-.19-.66-.27-.15-.06-.3-.11-.45-.16-.15-.05-.31-.09-.46-.13-.12-.03-.23-.06-.35-.08-.12-.03-.24-.05-.36-.07-.56-.1-1.13-.15-1.72-.15s-1.18.05-1.74.15c-.12.02-.24.05-.36.07-.12.03-.24.05-.36.08-.16.04-.31.08-.47.13-.15.05-.31.1-.46.16-.23.08-.45.17-.66.27-.07.03-.14.07-.22.1-.14.07-.28.14-.42.22-.07.04-.14.08-.21.12-.14.08-.27.16-.4.25-.2.13-.39.26-.58.41-.14.11-.28.22-.42.33-.05.04-.09.08-.13.12-2.07,1.81-3.37,4.46-3.37,7.39s1.08,5.36,2.97,7.08c.08.07.17.15.25.22.13.11.26.21.39.31.13.1.27.2.41.29.09.06.19.12.29.18.15.09.29.17.45.25.25.13.51.26.78.37,0,0-.01,0-.03,0,0,0-.02,0-.03,0-.04,0-.1.02-.18.04-.02,0-.05.01-.07.02-.03,0-.05.01-.08.02-.1.02-.22.05-.35.08-.06.01-.12.03-.18.04-.04.01-.08.02-.13.03-.11.03-.23.06-.35.09-.02,0-.05.01-.07.02-.2.05-.42.11-.65.17-.12.03-.24.06-.36.1-.09.03-.19.05-.28.08-.09.03-.19.06-.29.09-.06.02-.12.03-.17.05-.12.04-.24.07-.36.11-.06.02-.12.04-.18.06-.12.04-.25.08-.37.12-.13.04-.25.08-.38.13-.07.02-.15.05-.22.08-.15.05-.3.1-.45.16-.15.05-.3.11-.46.17-.15.06-.31.12-.46.18-.15.06-.31.12-.46.19-.31.13-.62.26-.93.4-.1.04-.19.09-.29.13-.19.09-.38.18-.57.28-.09.05-.19.09-.28.14-.15.08-.3.16-.45.24-.15.08-.29.16-.44.25-.29.17-.57.34-.84.52-.27.18-.53.37-.78.56-.18.18,0,6.81,0,6.81,0,0,3,3.18,9.17,3.63,0,0,.02,0,.03,0,0,0,.02,0,.03,0,0,0,.01,0,.02,0,0,0,.01,0,.02,0,0,0,.02,0,.03.02.08.05.16.14.24.27,0,.01.02.03.03.04.12.21.24.49.36.82,0,.02.02.04.02.06.02.05.03.1.05.15-.01.02-.03.03-.04.05,0,0,0,0,0,.01,0,0,0,.01-.01.02,0,.01-.01.02-.02.03-.01.02-.02.03-.03.05,0,.01-.02.03-.02.04,0,0,0,0,0,0-.01.02-.02.04-.03.05,0,0,0,.02-.01.02,0,0,0,.02-.01.02,0,0-.01.02-.01.03,0,0,0,0,0,0,0,.01-.01.02-.02.03l-.02.04s0,.02-.01.03c0,.02-.02.03-.02.05-.02.05-.05.11-.07.16,0,.01,0,.02-.01.03,0,.02-.01.03-.02.05h0s0,.01,0,.02c0,0,0,.02,0,.03,0,.01,0,.02-.01.03,0,0,0,.02,0,.03h0s-.01.05-.02.07c0,0,0,0,0,.01h0s0,.02,0,.02c0,.02-.01.04-.02.06,0,.02,0,.03-.01.05,0,0,0,0,0,0,0,0,0,.02,0,.03,0,.02,0,.04-.01.06,0,0,0,.01,0,.02,0,0,0,0,0,0,0,0,0,.02,0,.03,0,0,0,.02,0,.02,0,0,0,.01,0,.02,0,.02,0,.04-.01.06,0,0,0,.01,0,.02,0,.02,0,.04,0,.06,0,.03,0,.07-.01.1,0,.02,0,.04,0,.06,0,0,0,0,0,.01,0,0,0,.02,0,.03,0,.01,0,.02,0,.03h0v.02s0,.06,0,.1c0,.18-.09.36-.09.55v.18c-.05,0-.11-.01-.16-.02,0,0,0,0-.01,0-.03,0-.05,0-.08,0h0s-.07,0-.11,0c-.03,0-.05,0-.08,0-.1,0-.2,0-.31,0-.03,0-.07,0-.1,0-.04,0-.08,0-.13,0-.06,0-.13,0-.2.01-.07,0-.14.01-.21.02-.05,0-.1.01-.16.02,0,0-.01,0-.02,0-.05,0-.11.01-.16.02-.06,0-.12.02-.17.03-.04,0-.09.01-.13.02,0,0-.01,0-.02,0-.03,0-.07.01-.1.02-.03,0-.07.01-.1.02-.05.01-.09.02-.14.03-.04,0-.08.02-.13.03-.04.01-.09.02-.14.03-.09.02-.18.05-.27.08-.05.01-.09.03-.14.04-.05.01-.09.03-.14.05-.05.02-.09.03-.14.05-.03.02-.07.03-.1.05-.05.03-.1.05-.15.08-.05.03-.1.05-.14.08-.03.02-.06.03-.09.05-.06.04-.12.07-.18.11-.03.02-.06.04-.09.06-.02.01-.04.03-.06.04-.08.05-.15.1-.22.16-.04.03-.07.06-.11.09-.05.04-.1.08-.14.13-.02.02-.05.04-.07.07-.18-.36-.54-.27-.73-.18-.05,0-.26-.02-.59,0-.02,0-.04,0-.06,0-.03,0-.06,0-.09,0-.04,0-.08,0-.13,0-.01,0-.03,0-.04,0-.05,0-.1,0-.15.01-.02,0-.05,0-.07,0-.05,0-.1.01-.15.02-.03,0-.05,0-.08.01-.04,0-.08.01-.12.02-.04,0-.08.01-.13.02-.04,0-.08.01-.13.02-.04,0-.09.02-.13.03-.02,0-.04,0-.06.01-.02,0-.04,0-.06.01,0,0,0,0-.01,0,0,0-.02,0-.02,0-.01,0-.03,0-.04,0-.06.01-.11.03-.17.04,0,0,0,0,0,0-.03,0-.05.01-.08.02-.05.01-.1.03-.15.04-.09.03-.18.06-.28.09-.05.02-.1.03-.14.05h0c-.06.02-.12.04-.18.07-.06.02-.12.05-.18.07-.03.01-.06.02-.08.04-.04.02-.07.03-.11.05,0,0,0,0-.01,0-.06.03-.12.06-.17.08-.03.02-.06.03-.1.05-.03.02-.06.03-.09.05-.05.03-.09.05-.14.08-.05.03-.09.05-.14.08-.04.03-.09.05-.13.08-.05.03-.1.06-.15.1-.64.45-1.09.91-1.45,1.36-.18-.27-.63-.09-.73,0,0,0-.02,0-.03,0-.01,0-.02,0-.04,0-.07,0-.18.01-.32.03-.02,0-.03,0-.05,0-.06,0-.13.02-.2.03,0,0,0,0,0,0-.03,0-.07.01-.1.02-.08.02-.17.03-.26.05-.04,0-.08.02-.12.03,0,0,0,0,0,0-.04.01-.09.02-.13.03-.05.01-.09.03-.14.04-.05.01-.1.03-.15.04-.02,0-.05.02-.07.02-.03,0-.05.02-.08.03-.03,0-.05.02-.08.03-.07.02-.14.05-.21.08-.03.01-.06.02-.08.03,0,0,0,0,0,0,0,0-.01,0-.02,0-.05.02-.11.04-.16.07-.05.02-.11.05-.16.07-.03.01-.05.03-.08.04h0s-.05.03-.08.04c-.06.03-.11.06-.17.09-.03.01-.06.03-.08.05-.03.02-.06.03-.08.05-.03.02-.06.03-.08.05-.03.02-.06.03-.08.05s-.06.03-.08.05c-.03.02-.06.04-.08.05-.03.02-.07.05-.1.07,0,0,0,0,0,0-.03.02-.06.04-.09.06,0,0,0,0-.01,0,0,0,0,0,0,0,0,0,0,0,0,0-.03.02-.07.05-.1.07,0,0-.01.01-.02.02-.03.02-.06.04-.08.06-.03.02-.05.04-.08.06-.03.02-.06.05-.09.07-.03.02-.06.05-.08.07s-.06.05-.08.07c-.03.02-.05.05-.08.07-.02.02-.03.03-.05.05,0,0,0,0,0,0,0,0,0,0-.01.01,0,0,0,0,0,0s0,0,0,0c-.05.04-.09.08-.13.12s-.08.08-.13.12c-.04.04-.08.08-.12.12,0,0,0,0,0,0-.03.03-.06.06-.08.09-.01.01-.03.03-.04.04,0,0-.01.01-.02.02-.02.03-.05.05-.07.08,0,0,0,0,0,0-.04.05-.08.1-.12.15-.03.03-.05.06-.07.1,0,0,0,0,0,0,0,0,0,0-.01.01,0,0-.01.01-.01.02-.03.04-.05.07-.08.11-.05.07-.1.14-.14.21-.01.02-.03.04-.04.06-.05.08-.1.16-.14.24-.02.04-.04.08-.06.12s-.04.08-.06.12c-.04.08-.08.17-.11.25v-.09s-.02-.01-.03-.02c-.01,0-.02-.01-.03-.02-.01,0-.02-.01-.03-.01,0,0-.01,0-.02,0,0,0-.01,0-.02,0,0,0,0,0-.01,0,0,0-.01,0-.02,0-.02,0-.03,0-.05,0h0s-.09,0-.14,0h0s0,0,0,0c0,0,0,0,0,0h0s-.03,0-.04,0c-.01,0-.02,0-.04,0,0,0,0,0,0,0-.02,0-.04.01-.06.02,0,0,0,0,0,0h0s-.02,0-.03.01c0,0,0,0,0,0,0,0-.01,0-.02,0,0,0,0,0,0,0,0,0-.01,0-.02,0,0,0,0,0-.01,0,0,0-.02,0-.03.01,0,0-.02,0-.02.01,0,0-.02,0-.02.01,0,0-.01,0-.02.01-.01.01-.02.02-.03.03,0,0,0,0-.01,0,0,0,0,0,0,0h0s0,0,0,0c0,0-.02,0-.03,0,0,0-.01,0-.02,0,0,0,0,0,0,0h0s0,0,0,0c0,0,0,0,0,0,0,0-.01,0-.02,0,0,0,0,0,0,0t0,0s0,0,0,0h0s0,0,0,0c0,0-.02,0-.02,0,0,0-.01,0-.02,0,0,0-.02,0-.02,0-.02,0-.03,0-.05.02,0,0,0,0,0,0h0s-.01,0-.02,0c-.04.01-.09.03-.14.04-.03,0-.06.02-.09.03,0,0,0,0,0,0-.01,0-.03,0-.04.01-.03.01-.07.02-.1.04-.02,0-.04.01-.05.02,0,0-.01,0-.02,0-.01,0-.03.01-.04.02-.02,0-.04.01-.06.02h0s-.04.02-.06.02c-.08.03-.16.06-.25.1h0s0,0-.01,0c0,0,0,0,0,0,0,0,0,0,0,0,0,0,0,0,0,0,0,0-.01,0-.02,0,0,0-.01,0-.02,0h0s-.02,0-.03.01c-.08.03-.16.07-.24.11,0,0-.01,0-.02,0h0s-.03.02-.05.03h0s0,0,0,0h0s0,0,0,0c0,0,0,0,0,0,0,0-.01,0-.02,0l-.04.02s-.09.05-.14.07c0,0,0,0,0,0h-.02s0,.01,0,.02c0,0-.02,0-.03.01,0,0-.01,0-.02.01,0,0-.02,0-.02.01-.03.02-.07.04-.1.06-.04.02-.09.05-.13.08,0,0-.02.01-.03.02,0,0-.02.01-.03.02-.02.01-.04.02-.05.03-.03.02-.06.04-.1.06,0,0-.02.01-.03.02,0,0-.02.01-.02.02,0,0,0,0,0,0h0s-.02.01-.02.02c-.02.01-.03.02-.05.04,0,0,0,0,0,0,0,0,0,0,0,0,0,0-.01,0-.02.01l-.03.02s-.01,0-.02.01c0,0-.01,0-.02.01-.02.01-.04.03-.06.04,0,0-.02.01-.02.02-.02.01-.04.03-.06.04-.04-.04-.08-.08-.12-.12-.04-.05-.09-.09-.13-.14-.07-.08-.15-.15-.22-.23-.06-.06-.12-.12-.17-.18-.07-.07-.13-.14-.2-.2-.08-.08-.16-.17-.24-.25-.02-.02-.04-.04-.06-.06-.02-.02-.04-.04-.06-.06-.04-.04-.08-.08-.11-.12l-.06-.06c-.22-.22-.41-.41-.54-.54-.02-.02-.04-.04-.06-.06-.1-.09-.16-.15-.18-.15,0-.09-.18-.64-.18-.64-.18-.64-.36-1.18-.45-2,0-.03-.01-.07-.02-.1-.01-.07-.02-.13-.03-.19-.07-.39-.13-.69-.13-.98,0-.11,0-.23.01-.34,0-.06,0-.11.01-.17,0-.03,0-.06,0-.09,0-.06.01-.13.02-.19,0-.05,0-.1.01-.14.01-.14.02-.29.02-.43,0-.03.01-.07.02-.1,0-.04.01-.07.02-.11.08-.52.15-1.17.15-1.97v-.09c0-1.09-.54-2.9-1.18-3.36L15.61,14.43l-.09.09c-4.76,3.33-8.26,6.37-11.57,10.15-.22.25-.43.5-.65.75-.14.17-.29.34-.43.51-.12.14-.23.28-.35.42-.2.25-.41.5-.61.75-.1.13-.2.26-.3.38-.06.08-.13.16-.19.24-.11.14-.22.29-.33.43-.17.22-.33.44-.5.66-.17.22-.34.45-.51.68l-.04.07-.05.11h0s0,0,0,0c0,0,0,0,0,0,0,0,.02.02.04.03,0,0,0,0,0,0,.04.03.09.07.15.13,0,0,0,0,0,0,.04.03.07.06.12.1,0,0,0,0,0,0,.05.04.1.09.16.14.03.02.06.05.09.08.03.03.07.05.1.08.1.09.22.18.34.28.04.03.07.06.11.09.1.09.21.18.33.28.04.03.08.06.12.1.08.07.16.14.25.21.03.02.05.04.08.06.06.05.12.1.19.16.08.07.17.14.26.22.76.64,1.67,1.39,2.66,2.22.15.13.31.26.46.39.35.29.7.58,1.06.88.07.06.14.12.22.18.08.06.15.13.23.19.14.12.29.24.43.36.15.12.3.25.45.37.01,0,.02.02.03.03.06.05.12.1.18.15.08.06.15.13.23.19,0,0,.02.02.03.02.14.12.28.23.42.35.08.06.15.13.23.19.15.13.3.25.45.38,0,0,.01.01.02.02.37.31.73.61,1.1.92.23.19.46.38.69.57.15.12.3.25.45.37h0c.18.15.37.31.55.46.33.27.66.55.98.81.12.1.23.19.35.29.31.25.6.5.89.74.01,0,.02.02.03.03.06.05.11.09.16.14.07.05.13.11.2.16.13.11.26.21.38.32.2.16.39.33.58.48.11.09.22.19.33.28.12.1.23.19.34.28.06.05.11.09.16.14.05.05.11.09.16.13.1.08.2.16.29.24.49.41.92.77,1.27,1.05.05.04.1.08.15.12.44.36.73.6.83.67.01.01.02.02.03.02,0,0,0,0,0,0h0s.03.04.05.06c.04.04.08.09.13.13.01.01.03.02.04.04.03.02.05.04.08.06.02.01.04.03.06.04.05.04.1.07.16.1.03.02.05.03.08.04.02.01.04.02.06.04.03.01.05.03.08.04.03.02.07.03.1.05.57.27,1.3.47,1.93.54.03,0,.06,0,.09,0,.06,0,.11.01.17.01.03,0,.05,0,.08,0,.05,0,.11,0,.16,0,.06,0,.12,0,.18,0,.04,0,.07,0,.11,0,.11,0,.22,0,.33-.01.03,0,.05,0,.07,0,.15,0,.3-.02.44-.03.05,0,.09,0,.14-.01.04,0,.08,0,.13-.01.07,0,.14-.02.21-.02.06,0,.12-.02.18-.02.16-.02.32-.04.48-.07.48-.05.88-.07,1.31-.05.06,0,.12,0,.18,0,.09,0,.19.01.28.02.04,0,.07,0,.11.01.04,0,.09,0,.13.01.05,0,.11.01.17.02.04,0,.07,0,.11.01.07.01.15.02.23.03.04,0,.08.01.12.02h.45c.2.05.39.08.57.13.09.02.18.04.26.06.04.01.09.02.13.03.05.01.11.03.16.04.05.01.11.03.16.05.05.02.11.03.16.05.05.02.11.04.17.06.18.06.37.14.57.23,0,0,.03.03.1.1.01.01.03.03.05.05.02.02.05.05.08.08.02.02.04.04.06.06.09.09.2.2.32.32.05.05.09.09.14.14.05.05.1.1.15.15.14.14.29.29.45.45.04.04.08.08.12.12.15.15.31.31.46.46,0,0-.01,0-.02.01-.02.01-.03.02-.05.03,0,0-.01,0-.02.01-.03.02-.06.04-.09.06,0,0,0,0,0,0s0,0,0,0h0s0,0,0,0c-.02.01-.04.02-.06.04,0,0-.01,0-.02.01-.01,0-.03.02-.04.03-.02.02-.05.03-.07.05,0,0-.02.01-.02.02,0,0-.01,0-.02.01h0s0,0,0,0c-.01,0-.02.02-.03.02-.01,0-.02.02-.04.03,0,0,0,0,0,0-.05.04-.11.08-.17.12,0,0-.01.01-.02.02,0,0-.01.01-.02.02,0,0,0,0,0,0,0,0,0,0-.01,0,0,0,0,0-.01,0h0s0,0,0,0c-.04.03-.09.07-.13.1-.02.01-.04.03-.05.05-.03.02-.06.05-.09.07-.04.03-.07.06-.11.09-.02.02-.04.04-.07.06,0,0-.01,0-.02.02,0,0-.01.01-.02.02,0,0,0,0-.01,0h0s0,0,0,0c0,0,0,0,0,0-.02.02-.05.04-.07.07-.01.01-.03.03-.04.04,0,0-.01.01-.02.02,0,0-.01.01-.02.02h0s0,0,0,0c0,0-.01.01-.02.02l-.03.03s-.05.05-.08.08h0s-.02.02-.02.03c-.03.04-.07.07-.1.11-.01.01-.02.02-.03.03-.03.03-.05.06-.08.08l-.03.04-.04.05h0s0,0,0,0c0,0,0,0,0,0,0,0,0,0,0,0,0,0,0,0,0,0-.04.05-.08.09-.12.14,0,0,0,0,0,0,0,0,0,0,0,0h0s0,0,0,0c0,0,0,0-.01.01l-.02.02s0,0,0,0c-.01.02-.02.03-.04.05,0,0,0,0,0,0,0,0-.01.02-.02.03,0,0-.02.02-.02.03,0,0-.01.02-.02.02-.03.04-.06.08-.09.12t0,0s-.06.08-.09.13c0,0,0,0,0,.01-.04.06-.08.11-.12.17,0,0,0,0,0,0-.02.03-.04.06-.06.09-.02.03-.04.06-.06.09-.01.02-.03.04-.04.06-.01.02-.03.04-.04.06,0,0-.01.02-.02.03l-.02.04c-.03.05-.06.1-.08.15-.03.05-.05.1-.08.15-.06.13-.12.27-.17.4,0,.02-.01.03-.02.05,0,.02-.01.03-.02.05-.01.04-.03.07-.04.11-.01.04-.03.08-.04.12-.01.04-.02.07-.03.11-.01.04-.02.07-.03.11-.01.04-.02.07-.03.11-.02.05-.03.11-.04.16-.01.04-.02.08-.03.12-.01.05-.02.09-.03.14,0,.04-.02.09-.03.13-.02.09-.03.17-.04.25v.02s0,.03-.01.05c0,0,0,.02,0,.03,0,0,0,0,0,.01,0,0,0,.01,0,.01h0s-.02,0-.03,0h0s0,0-.01,0c0,0,0,0-.01,0,0,0,0,0,0,0s0,0,0,0c0,0,0,0,0,0-.01,0-.03,0-.04.01-.01,0-.03.01-.04.02h0s0,0,0,0c-.01,0-.03.01-.04.02h0s0,0,0,0c-.02.01-.04.03-.06.04-.02.01-.03.02-.04.03-.01.01-.03.02-.04.03,0,0,0,0,0,0-.02.02-.05.04-.07.06-.04.04-.08.08-.11.11l-.02.02h0c-.18.09-2,1.27-2.81,3.45-.27.64-.36,1.18-.36,1.63-.06-.02-.12-.02-.18,0-.03,0-.06.02-.09.03-.03.01-.05.03-.08.05-.01,0-.03.02-.04.03-.03.02-.05.04-.07.06-.01.01-.02.02-.03.03-.01.01-.02.02-.03.03-.05.05-.09.1-.11.12-.18.18-1.72,1.72-2.09,3.99,0,.36-.09.73-.09,1.09s.09.73.09,1c-.02,0-.05-.01-.07-.01,0,0-.02,0-.03,0,0,0-.01,0-.02,0,0,0,0,0,0,0-.02,0-.04.01-.06.02,0,0-.01,0-.02.01-.01,0-.02.01-.03.02,0,0-.02.01-.03.02,0,0-.01.01-.02.02,0,0-.01.01-.02.02-.02.03-.04.05-.06.08-.01.02-.02.03-.03.04,0,0,0,.02-.01.02-.03.05-.05.09-.08.14-.01.02-.02.04-.03.06-.01.03-.03.05-.04.08,0,0,0,.01,0,.02-.09.18-1.45,1.82-1.45,4.17v.09c0,1,.18,1.72.45,2.36h-.09s0,0-.01,0h0s0,0-.01,0h0s-.01,0-.02,0c0,0,0,0,0,0,0,0-.01,0-.02,0-.02,0-.03.01-.04.02-.01,0-.03.02-.04.03s-.02.02-.04.03c-.01.01-.02.03-.03.04-.01.01-.02.03-.03.04,0,0-.01.02-.01.02-.01.02-.03.05-.04.08-.01.03-.02.05-.03.08,0,.02-.02.04-.02.05-.01.03-.03.07-.04.1h0s-.02.06-.04.09c0,0,0,0,0,.01,0,0,0,.01,0,.02,0,0,0,0,0,.01h0s0,0,0,0c0,0,0,0,0,0,0,0,0,0,0,0,0,0,0,0,0,.01,0,0,0,0,0,.01,0,0,0,0,0,0,0,0,0,.01,0,.02,0,0,0,.01,0,.02,0,0,0,0,0,.01h0s0,0,0,0c0,0,0,0,0,0h0s0,.02-.01.02c0,.02-.02.04-.02.05-.02.04-.04.08-.06.14-.01.02-.02.05-.03.07-.02.05-.05.1-.07.16-.01.02-.02.04-.03.07-.01.02-.02.05-.03.07-.02.05-.04.1-.07.15-.01.03-.03.07-.04.1-.02.03-.03.07-.04.11-.03.07-.06.15-.09.22-.54-.09-1.18-.09-1.54-.09-.04,0-.07,0-.11.01-.03,0-.06,0-.1.01,0,0-.01,0-.02,0-.03,0-.07.01-.1.02-.03,0-.07.01-.1.02-.07.01-.15.03-.22.05-.02,0-.04.01-.07.02-.03,0-.05.01-.07.02-.03,0-.06.02-.09.03,0,0,0,0-.01,0-.03,0-.05.02-.07.03-.04.01-.08.03-.12.05-.02,0-.04.02-.06.03-.02,0-.04.02-.06.03-.03.02-.07.03-.1.05-.04.02-.07.04-.11.06,0,0,0,0,0,0-.03.02-.07.04-.1.06-.03.02-.06.04-.1.06-.01,0-.02.02-.03.02-.01.01-.03.02-.04.03-.01.01-.03.02-.04.03t0,0s0,0,0,0c0,0,0,0,0,0-.01.01-.03.02-.04.03-.01.01-.03.02-.04.04,0,0,0,0-.01.01-.03.03-.06.05-.09.08-.02.02-.05.05-.07.07-.02.02-.04.05-.06.08-.02.02-.03.04-.04.06,0,.01-.02.03-.03.04-.01.02-.02.03-.03.05,0,0,0,.02-.01.02-.02.02-.03.05-.04.08-.01.02-.02.05-.03.07,0,0,0,0,0,0,0,.02-.02.04-.02.06,0,0,0,.02-.01.03-.01.03-.02.05-.03.08,0,0,0,0,0,0h0s0,0,0,0c0,0,0,.02,0,.02,0,.01,0,.03-.01.04,0,0,0,0,0,0h0s0,0,0,0c0,.03-.01.06-.02.09,0,.01,0,.02,0,.03,0,0,0,0,0,0h0s0,.03,0,.04c0,0,0,0,0,.01,0,.01,0,.02,0,.03,0,0,0,0,0,0h0s0,.02,0,.03h0s0,.01,0,.01h0s0,.08,0,.12c0,.04,0,.08,0,.12h0c0,.36.18.73.54,1,.03.03.06.05.09.08.02.02.05.04.07.05,0,0,0,0,.01.01,0,0,0,0,0,0,.02.01.03.02.05.04,0,0,0,0,0,0,.03.02.06.04.1.06.03.02.06.04.09.05,0,0,0,0,.01,0,0,0,.01,0,.02.01h0s0,0,0,0c.01,0,.03.01.04.02.03.02.06.03.09.04.02.01.04.02.06.03.03.01.06.03.08.04.04.02.08.03.12.05,0,0,.01,0,.02,0,.04.02.08.03.13.05,0,0,0,0,0,0h0s.07.02.11.03c.01,0,.02,0,.03,0,0,0,0,0,0,0h0s.08.02.12.03c0,0,.02,0,.03,0,0,0,0,0,0,0h0s.07.02.11.03c0,0,0,0,.01,0,0,0,.01,0,.02,0,0,0,0,0,0,0,.04,0,.07.01.11.02,0,0,0,0,0,0,0,0,.01,0,.02,0,0,0,.01,0,.02,0t0,0h0s.03,0,.05,0c.01,0,.02,0,.04,0,0,0,0,0,.01,0,0,0,0,0,0,0,0,0,0,0,.01,0,0,0,.02,0,.03,0,0,0,0,0,0,0h0s.08,0,.12.01h0s.04,0,.06,0c.01,0,.02,0,.03,0,.02,0,.03,0,.04,0h0s.04,0,.05,0h.02s.08,0,.11,0h.03s.07,0,.1,0h.01s.08,0,.11,0h0s.06,0,.09,0c.07,0,.13,0,.19-.02.02,0,.03,0,.04,0,.02,0,.04-.01.06-.02,0,0,.01,0,.02,0,.02,0,.04-.01.06-.02.01,0,.02,0,.03-.01.01,0,.02,0,.03-.01.02,0,.04-.02.06-.03h0s.09-.04.14-.07h0s0,.06,0,.09c0,.03,0,.06,0,.09,0,0,0,0,0,0,0,0,0,.01,0,.02h0s0,.01,0,.02c0,0,0,0,0,.01,0,0,0,.01,0,.02,0,0,0,0,0,0h0s0,.01,0,.02c0,0,0,.01,0,.02,0,0,0,.01,0,.02,0,0,0,0,0,.01,0,0,0,.02,0,.03,0,.01,0,.02.01.03,0,0,0,0,0,0,0,0,0,0,0,.01,0,0,0,0,0,.01,0,0,0,0,0,.01,0,0,0,.01.01.02,0,0,.01.01.02.02v.09c-.54-.09-1.09-.09-1.45,0-.04,0-.07,0-.11,0-.03,0-.07,0-.1,0-.02,0-.04,0-.06,0,0,0-.01,0-.02,0-.02,0-.04,0-.07,0-.03,0-.05,0-.08.01-.03,0-.06.01-.1.02,0,0,0,0-.01,0-.03,0-.07.01-.1.02,0,0,0,0-.01,0-.03,0-.06.01-.09.02-.03,0-.06.02-.09.02,0,0,0,0-.01,0h0s-.07.02-.1.03c-.03.01-.06.02-.09.03-.03.01-.06.02-.09.03-.04.02-.08.03-.12.05-.03.02-.06.03-.09.05-.06.03-.12.07-.18.1-.03.02-.06.04-.08.06-.03.02-.06.04-.08.06-.03.02-.05.04-.08.06-.03.02-.05.04-.07.07-.01.01-.02.02-.04.03-.01.01-.02.02-.03.03-.02.02-.05.05-.07.07-.02.02-.04.05-.06.07-.02.02-.03.04-.04.06,0,0,0,0,0,0,0,0-.01.01-.02.02,0,0,0,0,0,0,0,0-.01.02-.02.02,0,0,0,.01-.01.02,0,.01-.01.02-.02.03-.01.02-.03.05-.04.07-.01.03-.03.05-.04.08,0,.02-.01.03-.02.05,0,.01,0,.02-.01.03-.01.03-.02.05-.03.08,0,0,0,0,0,.01,0,0,0,0,0,0,0,.02-.01.04-.02.05t0,0s0,0,0,.01c0,.03-.01.06-.02.08,0,.03-.01.06-.01.09,0,0,0,0,0,.01h0s0,.02,0,.02h0s0,.02,0,.03c0,0,0,.02,0,.02h0s0,.03,0,.05c0,.01,0,.03,0,.04v.02s0,.07,0,.11c0,.36.18.73.54,1,.64.54,1.63.82,2.54.73.27,0,.54-.09.73-.18.01.02.02.05.03.07,0,.01,0,.03.01.04t0,0s0,.03.01.04c0,.03.01.05.02.08,0,.04.02.08.02.12,0,.02,0,.04.01.06,0,.02,0,.04.01.06,0,.02.01.04.02.06,0,.02.01.04.02.06,0,.02.02.04.02.05-.64-.09-1.18-.09-1.63-.09-.04,0-.07,0-.11.01-.03,0-.06,0-.1.01,0,0-.01,0-.02,0-.03,0-.07,0-.1.02-.03,0-.07.01-.1.02,0,0-.01,0-.02,0-.07.01-.14.03-.2.04-.02,0-.04.01-.07.02-.03,0-.05.01-.07.02-.04.01-.07.02-.11.03,0,0-.01,0-.02,0-.05.02-.1.03-.15.05-.04.02-.08.03-.12.05,0,0-.01,0-.02,0,0,0,0,0,0,0-.04.02-.07.03-.11.05h0s0,0-.01,0c-.04.02-.07.03-.1.05-.08.04-.15.08-.22.13-.03.02-.07.05-.1.07-.02.01-.03.03-.05.04-.02.01-.03.03-.05.04-.03.03-.06.05-.09.08-.02.02-.05.05-.07.07-.02.02-.04.05-.06.07-.02.02-.03.04-.04.06,0,.01-.02.03-.03.04-.01.02-.03.04-.04.05,0,0,0,0,0,0,0,0,0,0,0,0,0,0,0,0,0,0,0,0,0,0,0,0h0s-.02.04-.03.06c-.01.02-.03.05-.04.07,0,.01-.01.02-.01.03,0,0,0,0,0,.01,0,0,0,0,0,0,0,0,0,.01,0,.02h0s0,0,0,.01c0,.02-.01.03-.02.05,0,0,0,.01,0,.02,0,0,0,0,0,0,0,.01,0,.02-.01.04,0,0,0,0,0,0s0,0,0,.01c0,0,0,.01,0,.02,0,0,0,.01,0,.02,0,0,0,0,0,0,0,.01,0,.03,0,.04,0,0,0,0,0,0,0,0,0,0,0,.01,0,.03,0,.05-.01.08,0,0,0,0,0,0h0s0,0,0,.01h0s0,0,0,.01c0,0,0,.01,0,.02,0,0,0,0,0,0,0,.01,0,.02,0,.03h0s0,.04,0,.06c0,.02,0,.03,0,.05,0,.04,0,.07,0,.11,0,.36.18.73.54,1.09.06.05.13.11.2.15.07.05.14.09.22.14.03.02.07.04.1.05.01,0,.03.01.04.02,0,0,0,0,0,0,.03.01.06.03.09.04.04.02.07.03.11.05,0,0,.02,0,.03.01.04.01.07.03.11.04.04.02.08.03.13.04.04.01.08.02.13.04,0,0,0,0,.01,0,.04.01.08.02.12.03,0,0,0,0,0,0,0,0,0,0,.01,0,.04,0,.07.02.11.02.01,0,.02,0,.03,0,.04,0,.08.01.12.02.02,0,.03,0,.05,0,.03,0,.05,0,.08,0h0s.09,0,.13,0c.05,0,.09,0,.14,0,.19,0,.39-.02.58-.06.36,0,.73-.09,1-.27,0,0,.18,0,.36-.09v.73c0,.09,0,.18,0,.28,0,.05,0,.1,0,.15,0,.04,0,.07,0,.11,0,.04,0,.08,0,.11,0,.04,0,.08.01.12,0,.04,0,.08.01.12,0,.05.01.11.02.16,0,0,0,0,0,0,0,.03,0,.07.01.1,0,.03,0,.06.01.09,0,.04.01.08.02.12,0,.02,0,.04.01.06,0,.02,0,.04.01.06,0,0,0,0,0,.01h0s0,.01,0,.01c0,.04.01.07.02.11,0,.04.02.08.03.13,0,0,0,.01,0,.02,0,.04.02.07.03.11.06.25.14.5.23.76.14.27.27.52.41.75.03.06.07.11.1.17.03.05.07.11.1.16.03.05.07.1.1.15.03.05.07.09.1.14-.02.02-.05.05-.07.08,0,.01-.02.03-.03.05,0,0,0,0,0,0,0,.01-.01.03-.02.04,0,0,0,.02-.01.03,0,0,0,.01,0,.02,0,0,0,0,0,0,0,0,0,0,0,0,0,.02-.01.03-.02.05,0,.01,0,.02,0,.03-.01.04-.02.09-.02.13,0,.02,0,.03,0,.05,0,0,0,0,0,.01h0s0,.02,0,.02c0,0,0,.01,0,.02,0,0,0,.02,0,.03,0,0,0,0,0,0s0,0,0,0h0s0,0,0,.01c0,0,0,0,0,0,0,0,0,0,0,0,0,0,0,0,0,0h0s0,0,0,0c0,0,0,0,0,0,0,0,0,0,0,0,0,0,0,0,0,0h0s0,0,0,.01c0,0,0,0,0,0,.01.02.03.05.05.07v.36c0,.73.09,2.45,1.09,3.99.07.09.13.18.2.26.07.08.13.16.19.24.14.17.28.32.41.46.02.02.04.05.07.07.02.02.04.04.07.07.02.02.05.05.07.07.02.02.04.04.06.05.03.03.06.06.1.09.03.03.06.06.1.08.02.02.03.03.05.04.05.04.09.08.14.12-.09.09-.18.18-.18.27,0,.18.09.36.18.45,0,.18.18,2.36,1.72,4.08.03.04.07.08.1.11.08.08.16.16.24.24.05.04.09.08.14.12.01.01.02.02.03.03.03.03.07.06.1.09.03.03.06.05.09.07.06.05.12.09.18.14.02.02.04.03.07.05.02.02.04.03.07.05.02.02.04.03.07.05.04.03.09.06.13.09.09.06.17.11.26.16.04.03.08.05.13.07.04.02.08.05.13.07.13.07.25.14.37.21h-.09c-.09.09-.09.18-.09.27,0,.18.09.36.18.45,0,.18.54,2.36,2.36,3.81.64.45,1.18.82,1.72,1q-.09.09-.09.18c0,.18.18.36.27.54,0,0,0,0,0,0,0,0,0,0,0,0,0,0,0,0,0,0,0,0,0,0,0,0h0s0,0,0,.01h0s0,0,0,0c0,0,0,0,0,0s0,0,0,0c0,0,0,0,0,0,0,0,0,0,0,0,0,0,0,.02.01.02,0,0,0,0,0,0,0,.01.01.02.02.04,0,0,0,0,0,0,0,0,0,0,0,0h0s0,0,0,0c0,0,0,0,0,.01,0,0,0,0,0,.01s0,0,0,.01c0,0,0,.01,0,.02h0s0,0,0,0c0,0,0,0,0,.01,0,0,0,0,0,.01.01.02.02.04.03.06,0,0,0,.01,0,.02.01.02.02.04.03.06,0,0,0,0,0,0,0,0,.01.02.01.03,0,0,0,0,0,.01h0s0,0,0,0c0,0,0,.01.01.02,0,.01.01.02.02.04,0,0,.01.02.02.03,0,0,.01.02.02.03,0,0,0,0,0,0,0,0,0,0,0,0h0s0,0,0,0h0s.02.03.02.04c0,0,0,.01.01.02,0,.01.01.02.02.03,0,0,0,0,0,0t0,0h0s0,.01,0,.02c0,0,0,0,0,0,0,0,0,.01.01.02,0,0,0,0,0,0,0,0,0,0,0,0,0,0,0,0,0,0,0,.01.02.03.02.04h0s0,0,0,.01c0,.01.02.03.02.04,0,.01.02.03.03.04,0,.01.01.02.02.03,0,.01.02.02.02.04h0s0,0,0,.01c.01.01.02.03.03.04.01.02.02.03.03.05h0s-8.64,9.54-8.64,9.54c-1.09-1.27-2.18-2.63-3.45-4.17-.06-.08-.12-.16-.18-.24-.12-.16-.24-.31-.36-.46-.06-.07-.12-.15-.17-.22-.11-.15-.22-.29-.33-.43h0c-.06-.08-.12-.16-.18-.24-.15-.2-.3-.4-.44-.59-.05-.06-.1-.13-.14-.19-.09-.12-.18-.24-.26-.36-.11-.15-.22-.3-.32-.45-.19-.27-.37-.53-.56-.8-.09-.14-.18-.27-.28-.41-.23-.34-.46-.7-.7-1.07-.09-.15-.19-.3-.29-.46-.14-.23-.29-.47-.44-.72h0c-.05-.08-.1-.17-.15-.25h0c.28-.09,5.26-1.45,5.26-1.45l-.18-.09c-12.34-8.98-15.7-16.25-15.7-16.34l-.18-.36-.09.36c0,.18-4.26,16.7,1.82,27.13l.09.18s2.63-4.17,2.9-4.54c2.54,4.54,4.36,7.08,7.71,11.07.36.45.73.91,1.09,1.36l-9.53,10.53c0,.09-.09,1.54.91,2.45.05.04.1.08.16.12.07.05.15.09.22.14.04.02.09.05.14.07.06.02.12.05.18.07.05.02.1.03.15.05.05.01.11.03.16.04.04,0,.07.01.11.02.21.03.43.04.68.03.05,0,.11,0,.16-.01.03,0,.06,0,.1-.01.1-.01.2-.03.31-.04l9.08-10.07h0c.44.49.87.97,1.3,1.44.14.16.29.31.43.46h0c.23.25.46.49.69.72.12.12.23.24.35.35,3.3,3.35,6.78,6.08,12.02,8.91.95.53,1.83.99,2.69,1.4.08.04.17.08.25.12.71.34,1.4.65,2.09.93.2.08.4.16.59.24.13.05.26.11.4.16.13.05.27.1.4.15.07.03.13.05.2.07.13.05.26.1.39.14.67.24,1.36.48,2.07.71.07.02.14.05.21.07.07.02.14.05.22.07.14.05.29.09.44.14,1.17.37,2.43.73,3.84,1.14.73.18,1.45.36,2.09.45.24.05.49.09.74.14.06.01.12.02.17.03.06.01.12.02.19.04.08.02.15.03.23.05.05.01.1.02.15.04.07.02.15.04.23.06.08.02.15.04.23.07.03,0,.06.02.09.03.04.01.08.03.12.04s.08.03.12.04c.04.01.08.03.12.05.04.02.08.03.12.05.07.03.13.06.2.09.07.03.13.06.2.1.98.49,1.75.96,2.43,1.49.06.04.11.09.17.13,0,0,0,0,.01.01.05.04.11.09.16.13.05.05.11.09.16.14.04.03.08.07.12.1.03.02.05.05.08.07.09.09.19.18.28.27.21.21.41.42.6.65.03.04.06.07.09.11.03.04.07.08.1.12.07.08.13.16.2.24.2.25.4.51.6.79.82,1.04,1.36,1.93,1.78,2.86.05.12.1.23.15.35.05.12.1.24.14.36.05.12.09.24.13.37.03.08.05.16.08.24.05.14.09.28.14.42.04.14.09.29.13.44.02.08.04.15.06.23.06.23.13.47.19.72l.18.45.09-.45c.73-2.63,1.27-3.99,2.81-5.99.22-.28.42-.54.63-.79.07-.08.14-.16.2-.24.27-.32.53-.61.81-.88.09-.09.18-.18.28-.27.03-.03.05-.05.08-.07.04-.04.08-.07.12-.1.05-.05.11-.1.16-.14.05-.04.1-.09.16-.13,0,0,0,0,.01-.01.05-.05.11-.09.17-.13.06-.04.12-.09.17-.13.06-.04.12-.09.18-.13.59-.43,1.27-.82,2.12-1.23.07-.03.14-.07.2-.1.07-.03.13-.06.2-.09.04-.02.08-.03.12-.05.04-.02.08-.03.12-.05.04-.02.08-.03.12-.04.04-.01.08-.03.12-.04.03-.01.06-.02.09-.03.07-.03.15-.05.22-.07.07-.02.15-.04.22-.06.05-.01.1-.03.15-.04.07-.02.15-.03.22-.05.06-.01.12-.03.18-.04.05-.01.11-.02.16-.03.26-.05.52-.09.79-.14.64-.09,1.27-.27,2-.45.09-.03.18-.05.27-.08.26-.08.52-.15.78-.22.17-.05.34-.1.5-.14.12-.04.25-.07.37-.11,1.84-.54,3.42-1.03,4.93-1.58.12-.04.25-.09.37-.14.07-.03.13-.05.2-.07.13-.05.27-.1.4-.15.13-.05.26-.1.4-.16.2-.08.4-.16.6-.24.22-.09.45-.19.67-.29.09-.04.18-.08.28-.12.02,0,.03-.02.05-.02.07-.03.15-.07.23-.1.09-.04.19-.08.28-.13.17-.08.34-.16.51-.24.02-.01.05-.02.07-.03.09-.04.18-.08.27-.13.86-.41,1.76-.88,2.72-1.4,5.04-2.74,8.47-5.4,11.63-8.56.21-.21.42-.42.63-.64.14-.14.28-.29.42-.43.28-.29.55-.59.83-.89.28-.3.55-.61.83-.92.07-.08.14-.16.21-.24.21-.24.42-.47.63-.72h0c.07-.08.14-.16.21-.24.04-.04.07-.08.11-.12.04-.04.07-.08.11-.12h0s9.17,10.16,9.17,10.16h0c.06,0,.12.01.18.01.06,0,.12,0,.18,0,.09,0,.19,0,.28,0,.04,0,.07,0,.11,0,0,0,.02,0,.03,0,.04,0,.09,0,.13-.01h0s.09,0,.13-.02c.09-.01.17-.03.26-.04.04,0,.08-.02.11-.03.05-.01.1-.03.15-.04.07-.02.14-.05.2-.07.05-.02.1-.04.15-.06.03-.01.05-.03.08-.04.03-.01.06-.03.08-.04.01,0,.02-.01.03-.02.03-.02.06-.03.08-.05.03-.02.06-.04.08-.06.03-.02.06-.05.09-.07.08-.07.15-.15.22-.23.02-.03.04-.05.06-.08.02-.03.04-.05.06-.08.02-.03.04-.05.06-.08.05-.08.1-.17.15-.25,0-.02.02-.04.03-.06.01-.02.02-.04.03-.06.01-.03.03-.06.04-.09.11-.26.18-.52.21-.74,0-.03.01-.07.02-.1.01-.07.02-.14.02-.2,0-.03,0-.05,0-.08,0,0,0-.01,0-.02,0-.03,0-.06,0-.08,0-.13,0-.21,0-.21v-.09l-9.53-10.62c0-.09.09-.18.18-.27,3.36-3.99,5.08-6.53,7.71-11.07.18.36,2.81,4.54,2.81,4.54l.09-.18c4.15-7.12,3.52-17.08,2.68-22.74-.02-.15-.05-.3-.07-.44-.01-.07-.02-.14-.03-.21,0-.05-.02-.11-.03-.16-.02-.1-.03-.21-.05-.31,0-.05-.02-.1-.03-.15-.02-.13-.05-.26-.07-.38-.01-.06-.02-.12-.03-.18-.02-.12-.04-.24-.07-.35-.02-.11-.04-.22-.06-.33-.03-.16-.06-.31-.09-.45-.02-.09-.04-.18-.06-.27-.03-.13-.05-.25-.08-.35-.02-.07-.03-.14-.05-.2-.03-.13-.06-.23-.08-.32,0-.02,0-.03-.01-.05,0-.03-.02-.06-.02-.08,0-.01,0-.02,0-.04-.02-.07-.03-.12-.04-.12l-.09-.36-.09.36c-.09.09-3.45,7.35-15.7,16.34l-.27.09s4.99,1.36,5.35,1.45c-1.72,2.72-2.81,4.36-4.9,6.9-.91,1.09-1.72,2.18-2.54,3.08l-8.24-9.21s.02-.01.03-.02c0,0,0,0,.01,0h0s.02-.01.03-.02c.01,0,.02-.02.03-.02.02-.02.05-.03.07-.05.02-.01.03-.02.05-.04,0,0,.01-.01.02-.02.02-.02.05-.03.07-.05.04-.03.08-.06.12-.09,0,0,0,0,.01,0,0,0,0,0,.01,0t0,0s0,0,0,0h0s0,0,0,0h0s0,0,.01-.01c0,0,0,0,0,0,.03-.02.05-.04.08-.06.02-.02.05-.04.07-.06,0,0,0,0,.01,0,0,0,0,0,0,0,0,0,0,0,0,0h0s0,0,0,0c.04-.03.08-.07.12-.1h0s0,0,0,0c0,0,0,0,0,0,0,0,0,0,0,0h0s0,0,0,0c.01-.01.03-.02.04-.04,0,0,0,0,0,0,0,0,.02-.01.02-.02,0,0,.01-.01.02-.02.01-.01.03-.02.04-.04h0s0,0,.01-.01c.07-.07.15-.14.22-.21,0,0,0,0,.01-.01h0s.01-.01.02-.02c0,0,0,0,0,0h0s.09-.09.13-.14c.01-.01.02-.03.04-.04.04-.04.08-.09.12-.13.02-.02.04-.05.06-.07.01-.02.03-.03.04-.04,0,0,0,0,0,0,0,0,0,0,0,0,0,0,0,0,0,0,0,0,.02-.02.02-.03,0,0,0,0,0,0h0s.03-.03.04-.04c.03-.03.05-.06.07-.09.01-.02.03-.03.04-.05,0,0,0,0,.01-.01.02-.03.04-.05.06-.08h0s.02-.03.03-.05c.01-.01.02-.03.03-.04,0,0,0,0,0-.01,0-.01.02-.02.02-.03,0,0,0,0,0-.01.01-.02.03-.03.04-.05.02-.02.03-.04.04-.06.01-.01.02-.03.03-.04,0-.01.02-.02.02-.03,0,0,0,0,0-.01.03-.05.07-.1.1-.15,0,0,.01-.02.02-.03,0,0,.01-.02.02-.03.01-.02.03-.04.04-.07,0-.01.02-.03.02-.04.01-.02.02-.04.03-.05.02-.04.04-.08.06-.13,0-.01.01-.03.02-.04.01-.02.02-.05.03-.07,0,0,0-.02.01-.03,0,0,0,0,0,0,0,0,0,0,0,0,0,0,0,0,0,0,0,0,0,0,0,0,0,0,0,0,0-.01,0-.01.01-.03.02-.04,0-.01.01-.03.02-.04,0,0,0-.01,0-.02.02-.04.03-.07.04-.11.02-.05.04-.11.06-.16.02-.05.04-.11.06-.16h0c.02-.05.04-.11.05-.16h0s.03-.09.05-.14c0,0,0-.02,0-.02.01-.05.03-.09.04-.14,0-.03.02-.06.03-.09.01-.05.03-.1.04-.14,0,0,0-.02,0-.02.01-.05.02-.1.03-.15.01-.05.02-.11.04-.16,0-.04.02-.09.03-.13,0-.04.01-.07.02-.11.02-.09.03-.18.04-.26h0s.02,0,.04,0,.02,0,.04,0c.03,0,.05-.01.08-.02.01,0,.02-.01.04-.02.02,0,.03-.01.05-.02.02,0,.03-.02.05-.03,0,0,0,0,0,0,0,0,0,0,.01,0,.01,0,.03-.02.04-.03h0s.02-.02.04-.03c.02-.02.05-.04.07-.06.01-.01.02-.02.03-.03.01-.01.02-.02.03-.03,0-.01.02-.02.02-.03,0,0,.01-.02.02-.03,0,0,0,0,0,0h0s0,0,.01,0c0,0,0,0,.01,0,0,0,0,0,.01,0,0,0,.01,0,.02-.01h0s.01,0,.02-.01c0,0,.01,0,.02-.01h0s.04-.02.06-.04c.03-.02.05-.04.08-.06.03-.02.06-.04.09-.07,0,0,.01,0,.02-.01,0,0,.01-.01.02-.01h0s.05-.04.08-.06c.04-.03.08-.06.13-.1.03-.02.06-.05.09-.07.03-.03.06-.05.09-.08.03-.03.07-.06.1-.09.05-.05.1-.09.15-.14.06-.05.12-.11.17-.17.06-.06.12-.12.18-.19.02-.02.04-.04.06-.07,0,0,0,0,0,0,.03-.04.07-.08.11-.12.03-.03.05-.06.08-.09.04-.04.07-.09.11-.14.07-.09.15-.19.22-.29.04-.05.07-.1.11-.15.03-.04.06-.08.09-.13,0-.01.01-.02.02-.03,0,0,0,0,0-.01.02-.03.04-.06.06-.1.01-.02.03-.04.04-.06.02-.03.04-.06.06-.1,0,0,0-.01.01-.02.01-.02.03-.04.04-.06,0-.01.01-.02.02-.04,0,0,0,0,0,0,.02-.03.03-.05.04-.08,0-.01.02-.03.02-.04,0-.01.01-.02.02-.03,0-.02.02-.03.03-.05,0-.02.02-.03.03-.05,0-.01.01-.02.01-.03,0,0,0,0,0,0,0,0,0,0,0-.01.02-.04.04-.08.06-.13,0-.01.01-.03.02-.04.01-.02.02-.04.03-.06,0,0,0-.02.01-.03,0-.02.02-.04.02-.06.01-.03.02-.06.04-.08,0-.01,0-.02.01-.03,0,0,0,0,0-.01.01-.02.02-.05.03-.07,0,0,0-.01,0-.02,0-.02.02-.05.03-.07.02-.04.03-.08.05-.12.02-.04.03-.08.04-.11.03-.07.05-.15.08-.22,0-.02.02-.05.02-.07,0-.02.01-.04.02-.06,0-.03.02-.05.02-.08.01-.03.02-.07.03-.1,0,0,0-.01,0-.02,0,0,0-.01,0-.02,0,0,0-.01,0-.02,0-.02.01-.04.01-.07t0,0c.01-.06.02-.11.03-.16,0-.05.01-.1.02-.15,0-.02,0-.03,0-.05,0-.03,0-.06,0-.1,0-.02,0-.05,0-.07,0-.01,0-.02,0-.04,0-.01,0-.02,0-.04,0-.02,0-.05,0-.07,0-.02,0-.05,0-.08.06.02.12.02.18,0,.03,0,.06-.02.09-.03.03-.02.06-.03.08-.05.01,0,.03-.02.04-.03.01-.01.03-.02.04-.03,0,0,.01-.01.02-.02.01-.01.03-.03.04-.04.04-.04.07-.07.09-.1,0,0,.02-.02.02-.03,0,0,.01-.02.02-.02,0,0,.01-.01.02-.02h.01s0-.02.01-.02c0,0,0,0,.01-.01,0,0,.01-.01.02-.02.02-.02.03-.04.06-.06.01-.01.02-.02.03-.04.01-.01.02-.03.04-.04,0,0,.02-.02.03-.03.02-.02.04-.04.06-.06.01-.01.02-.02.03-.03.03-.04.06-.07.1-.11.03-.04.07-.08.11-.13.02-.03.05-.06.08-.09,0,0,.01-.02.02-.02,0,0,0,0,0-.01,0,0,0,0,0,0,0,0,0,0,0,0,0,0,0,0,0,0,0,0,0,0,0,0,0,0,0,0,0,0,0,0,0,0,0,0,0,0,0,0,0,0,0,0,0,0,0,0,.02-.02.03-.04.05-.06.02-.03.04-.05.06-.08.02-.03.04-.05.06-.08s.04-.05.06-.08c.02-.03.04-.06.06-.09.02-.03.04-.06.06-.09.02-.03.04-.06.06-.09s.04-.06.06-.1c.04-.07.08-.13.12-.2.02-.04.05-.08.07-.12.02-.04.05-.08.07-.12.02-.03.03-.06.05-.09.02-.03.03-.06.05-.1.03-.06.06-.13.1-.2.02-.04.04-.09.06-.13,0,0,0,0,0-.01.02-.04.04-.09.06-.14.04-.1.08-.19.11-.29.05-.12.09-.25.13-.38.02-.06.04-.13.06-.2.04-.13.07-.27.09-.41h0c.01-.07.03-.14.04-.21.09-.36.09-.73.09-1,0-.45-.09-.73-.09-1.09.02,0,.05.01.07.01.01,0,.02,0,.03,0,.01,0,.02,0,.03,0,.01,0,.02,0,.03-.01.01,0,.02-.01.03-.02,0,0,.02-.01.03-.02.03-.02.06-.05.09-.08.01-.01.02-.03.03-.04.01-.01.02-.03.03-.04,0,0,.01-.01.01-.02,0-.01.02-.03.03-.04,0,0,0-.01.01-.02,0-.01.02-.03.02-.04.04-.06.06-.1.09-.13.01-.02.04-.07.09-.14.01-.02.03-.05.05-.07.02-.04.05-.08.08-.12,0,0,0,0,0,0,0,0,0-.01,0-.02,0,0,0,0,0,0,0,0,0,0,0,0,0,0,0,0,0,0,0,0,0-.01.01-.02,0,0,0,0,0-.01,0,0,0,0,0,0,0,0,0,0,0,0,0,0,0,0,0,0h0s0,0,0-.01c0,0,0,0,0-.01,0,0,0-.01.01-.02,0,0,0-.01.01-.02,0,0,.01-.02.02-.03,0,0,0-.02.01-.02,0,0,0-.02.01-.02,0,0,0,0,0,0,0-.02.02-.03.03-.05h0s.02-.03.03-.05c0,0,0,0,0,0,.01-.02.02-.03.03-.05,0,0,0,0,0,0,.01-.02.02-.04.03-.05.02-.04.04-.07.06-.11,0,0,0,0,0,0,.01-.02.02-.04.03-.06.01-.02.02-.04.03-.06,0,0,0,0,0,0,.01-.02.02-.04.03-.06,0,0,0-.01.01-.02,0-.02.02-.03.03-.05,0-.02.02-.04.03-.06,0-.02.01-.03.02-.04,0,0,0-.02.01-.03,0-.01.01-.03.02-.04,0-.02.01-.03.02-.05,0,0,0-.01,0-.02,0-.01,0-.02.01-.03,0-.02.02-.03.02-.05.01-.02.02-.04.03-.07,0,0,0-.01,0-.02,0-.01,0-.02.01-.03,0-.02.02-.04.03-.06,0-.02.02-.04.03-.06,0,0,0-.01,0-.02,0-.01,0-.02.01-.03,0-.02.01-.03.02-.05.01-.03.02-.06.03-.09,0-.01.01-.03.02-.04,0-.02.02-.05.03-.07,0-.01,0-.03.01-.04,0-.01,0-.02.01-.04,0,0,0,0,0-.01,0,0,0-.02,0-.03.02-.05.04-.11.05-.16,0,0,0-.02,0-.03.02-.06.04-.12.05-.18h0s0,0,0,0c0,0,0,0,0,0,0,0,0,0,0,0,0-.01,0-.02,0-.03,0-.02.01-.04.02-.06,0,0,0-.01,0-.02,0-.03.02-.06.02-.08,0,0,0,0,0,0,0,0,0,0,0,0,0-.03.02-.06.02-.09,0-.03.02-.07.02-.1,0,0,0,0,0-.01,0-.02,0-.04.01-.06,0-.02,0-.03.01-.05,0-.03.01-.06.02-.09,0,0,0,0,0,0s0,0,0,0c0,0,0,0,0,0h0s0,0,0,0c0,0,0,0,0,0,0-.01,0-.03,0-.04,0,0,0,0,0,0,0,0,0-.02,0-.03h0s0,0,0,0c0,0,0-.02,0-.02,0-.01,0-.03,0-.04,0,0,0,0,0-.01,0,0,0,0,0-.01,0,0,0,0,0,0,0-.01,0-.03,0-.04,0-.01,0-.03,0-.04,0,0,0-.02,0-.03,0-.01,0-.02,0-.03,0,0,0,0,0-.01,0,0,0,0,0,0,0-.04.01-.08.01-.12,0-.03,0-.07.01-.1,0,0,0,0,0,0h0s0,0,0,0c0-.04,0-.08.01-.12h0s0-.02,0-.02c0-.02,0-.04,0-.06,0,0,0,0,0,0,0,0,0-.02,0-.02,0-.02,0-.03,0-.05h0s0-.02,0-.03c0,0,0-.02,0-.02,0,0,0-.01,0-.02,0,0,0,0,0,0,0,0,0,0,0,0h0s0-.03,0-.04h0s0-.01,0-.02c0-.01,0-.02,0-.03v-.02s0,0,0-.01c0,0,0,0,0-.01h0s0-.08,0-.11v-.09c0-.05,0-.11,0-.16,0-.03,0-.06,0-.09,0-.02,0-.04,0-.06,0,0,0-.02,0-.03,0-.03,0-.06,0-.08h0s0-.03,0-.04c0,0,0-.02,0-.02,0,0,0-.01,0-.02,0,0,0,0,0,0,0,0,0-.01,0-.02,0-.02,0-.03,0-.04,0,0,0,0,0-.01,0,0,0-.02,0-.02,0,0,0-.02,0-.02,0-.02,0-.03,0-.05,0-.01,0-.03,0-.04,0-.01,0-.03,0-.04,0-.03,0-.05,0-.08,0-.06-.01-.11-.02-.17,0-.05-.02-.11-.03-.16-.02-.1-.04-.2-.06-.3,0-.03-.01-.05-.02-.08,0-.03-.02-.06-.03-.1,0,0,0,0,0-.01-.01-.05-.03-.1-.04-.14-.01-.04-.03-.08-.04-.12,0,0,0-.02,0-.02-.01-.03-.02-.06-.03-.09-.02-.05-.03-.1-.05-.14,0,0,0-.01,0-.02,0,0,0,0,0,0,0-.02-.01-.04-.02-.05-.01-.04-.03-.07-.04-.11h.09c.09,0,.27-.09.27-.27.27.18.64.27,1,.27.19.04.38.06.57.06.04,0,.09,0,.13,0,.04,0,.07,0,.11,0,.02,0,.04,0,.05,0,0,0,0,0,0,0,.03,0,.06,0,.09-.01.01,0,.02,0,.03,0,.04,0,.07-.01.11-.02,0,0,0,0,0,0,0,0,0,0,0,0h0s.09-.02.13-.03c.04,0,.08-.02.12-.03.04,0,.07-.02.11-.03.03,0,.06-.02.08-.03.06-.02.11-.04.16-.06.02,0,.05-.02.07-.03,0,0,0,0,0,0,.03-.01.06-.03.09-.04.04-.02.07-.03.1-.05.04-.02.08-.04.12-.06.07-.04.15-.09.22-.14.07-.05.14-.1.2-.15h0s.09-.09.13-.14c.04-.05.08-.09.11-.14.03-.05.07-.09.1-.14.07-.11.14-.23.18-.34.01-.03.02-.06.03-.08.01-.03.02-.06.03-.09,0-.03.02-.05.02-.07,0-.03.02-.06.02-.08,0-1.18-1.18-1.82-2.45-1.91h-.73c.09-.09.09-.27.09-.36.82.09,1.82-.18,2.45-.73.05-.03.09-.07.13-.11.02-.02.04-.04.06-.06.02-.02.04-.04.05-.06.01-.02.03-.03.04-.05.01-.01.02-.03.03-.04,0,0,0,0,0,0,.02-.03.04-.05.06-.08.01-.02.02-.03.03-.05,0,0,.01-.02.02-.03.01-.02.03-.04.04-.06.01-.02.02-.03.03-.05,0-.02.02-.03.03-.05.01-.02.02-.04.03-.06,0,0,0,0,0-.01,0,0,0,0,0,0,.01-.03.02-.05.03-.08,0-.02.01-.04.02-.06.02-.05.03-.1.04-.14,0-.03,0-.07,0-.1,0-.01,0-.02,0-.03,0-.01,0-.02,0-.03,0,0,0-.02,0-.02,0-.02,0-.04,0-.06h0s0,0,0-.01c0-.03,0-.05-.01-.08-.01-.05-.02-.11-.04-.16,0,0,0-.02,0-.02,0-.02-.02-.05-.02-.07,0,0,0,0,0-.01h0s0-.02-.01-.03c0-.01,0-.02-.01-.03,0,0,0-.01,0-.02,0-.02-.02-.04-.03-.06-.01-.03-.03-.05-.04-.08-.01-.02-.03-.05-.04-.07-.01-.02-.02-.03-.03-.05,0,0,0-.01-.01-.02,0-.01-.02-.03-.03-.04-.02-.03-.04-.05-.06-.08-.02-.02-.03-.04-.05-.06,0,0,0,0-.01-.01-.02-.03-.05-.05-.07-.07-.03-.03-.06-.06-.09-.08l-.02-.02s-.03-.02-.04-.03c0,0-.01-.01-.02-.02l-.02-.02s-.03-.02-.04-.03h0s-.06-.04-.09-.06c-.03-.02-.06-.04-.09-.06-.03-.02-.06-.04-.09-.05-.06-.03-.13-.07-.2-.09-.07-.03-.14-.06-.21-.08h0s-.07-.02-.11-.03c-.07-.02-.15-.04-.22-.06h0s-.07-.02-.11-.02c-.03,0-.07-.01-.1-.02,0,0-.02,0-.02,0-.04,0-.07,0-.11-.01h0s-.07,0-.11-.01c-.03,0-.06,0-.09,0-.02,0-.04,0-.06,0-.03,0-.06,0-.09,0-.18,0-.36-.09-.64,0v-.36s.05,0,.08,0h0s.08,0,.12,0c.04,0,.08,0,.12,0h.05s.06,0,.1,0c.03,0,.07,0,.1,0,.01,0,.02,0,.03,0h0s0,0,0,0c.01,0,.03,0,.04,0,.01,0,.02,0,.03,0,.01,0,.02,0,.03,0,0,0,0,0,0,0,0,0,0,0,.01,0,0,0,.01,0,.02,0h0s0,0,0,0c.01,0,.02,0,.03,0h0s.07-.01.11-.02h0s.02,0,.02,0c0,0,0,0,0,0,.04,0,.07-.01.11-.02,0,0,0,0,0,0,.09-.02.19-.04.28-.07h0s.02,0,.03-.01c0,0,0,0,0,0,0,0,0,0,.01,0,0,0,0,0,0,0,0,0,0,0,.01,0,.02,0,.05-.02.07-.02,0,0,0,0,0,0,.09-.03.18-.07.27-.11.07-.03.15-.07.22-.11.02,0,.03-.01.04-.02h0s.03-.02.04-.02c.03-.02.05-.03.08-.05.03-.02.06-.04.09-.06,0,0,.02-.01.02-.02.08-.05.15-.11.22-.17.02-.02.04-.03.07-.05.02-.01.03-.03.05-.04.02-.01.03-.03.04-.04.01,0,.02-.02.03-.03.02-.02.04-.04.05-.06.03-.04.07-.08.1-.12.01-.01.02-.03.03-.04,0-.01.02-.02.02-.03.01-.02.02-.03.03-.05.01-.02.02-.04.04-.06.02-.04.05-.09.06-.13.01-.03.02-.06.03-.08.01-.03.02-.06.03-.09,0-.03.02-.05.02-.07,0-.03.02-.06.02-.08,0-.04,0-.07,0-.11,0-.01,0-.02,0-.03,0,0,0,0,0-.01,0,0,0,0,0-.01,0,0,0,0,0-.01,0-.01,0-.02,0-.03,0-.02,0-.04,0-.07h0s0-.04,0-.06c0,0,0-.02,0-.02,0,0,0,0,0-.01,0-.03-.01-.06-.02-.09,0-.02,0-.04-.02-.06t0,0s0-.02,0-.03c0-.03-.02-.05-.03-.08-.01-.03-.02-.05-.03-.08,0-.01,0-.02-.01-.03,0-.01,0-.02-.01-.03,0,0,0,0,0,0,0,0,0,0,0,0s0,0,0,0c-.04-.08-.08-.15-.13-.23-.01-.02-.03-.04-.04-.06-.01-.02-.03-.03-.04-.05,0,0-.01-.02-.02-.02-.01-.02-.02-.03-.04-.04,0,0,0,0,0,0-.02-.02-.05-.05-.07-.07-.05-.05-.1-.09-.15-.14-.02-.02-.05-.04-.07-.05,0,0-.02-.01-.02-.02-.02-.02-.05-.03-.07-.05,0,0,0,0-.01,0-.03-.02-.06-.04-.09-.05-.03-.02-.05-.03-.08-.05,0,0-.01,0-.02-.01-.03-.02-.06-.03-.09-.04-.01,0-.02-.01-.03-.02-.02-.01-.05-.02-.07-.03-.03-.02-.07-.03-.1-.04-.07-.03-.14-.05-.21-.08-.07-.02-.15-.04-.22-.06-.04-.01-.09-.02-.13-.03-.02,0-.04,0-.06-.01-.04,0-.08-.02-.13-.02-.01,0-.02,0-.03,0,0,0-.01,0-.02,0-.03,0-.05,0-.08-.01-.02,0-.03,0-.05,0-.02,0-.03,0-.05,0-.05,0-.1-.01-.15-.01-.36,0-1.09,0-1.82.09.09-.09.09-.18.09-.27v-.09c0-.18.18-.91.18-1.91,0-.06,0-.13,0-.2,0-.06,0-.12,0-.17,0-.02,0-.04,0-.05,0-.05,0-.1,0-.15,0-.08-.01-.17-.02-.26,0-.03,0-.05,0-.08,0,0,0-.01,0-.02,0-.04,0-.07-.01-.11,0-.05-.02-.11-.02-.16,0-.05-.02-.1-.03-.16-.02-.12-.04-.23-.07-.35-.03-.12-.06-.23-.09-.35h0c-.03-.12-.07-.24-.11-.37-.02-.06-.04-.12-.06-.19-.03-.07-.07-.13-.1-.2-.03-.07-.07-.13-.1-.19-.03-.06-.07-.12-.1-.18h0c-.03-.06-.07-.12-.1-.17-.14-.23-.27-.43-.41-.61.09-.09.18-.27.18-.45,0-.09,0-.18-.09-.27,0,0,.09-.18.09-.36,0-.73-.18-2.45-1.18-3.99-.14-.18-.27-.35-.4-.5-.03-.04-.06-.07-.09-.1-.12-.14-.24-.27-.36-.39,0-.01-.02-.02-.03-.03,0,0-.01-.01-.02-.02-.01-.02-.03-.03-.04-.04-.02-.02-.04-.04-.07-.06-.02-.02-.04-.04-.06-.06s-.04-.04-.06-.06c-.02-.02-.04-.04-.06-.06h0s-.04-.04-.06-.06c-.02-.02-.03-.03-.05-.04,0,0,0,0-.01-.01-.01-.01-.03-.02-.04-.04,0,0-.01-.01-.02-.02,0,0,0,0,0,0-.02-.02-.04-.04-.06-.05.03-.03.07-.07.1-.1t0,0s.02-.02.03-.03h0s0-.01.01-.02c0,0,0,0,0,0,0,0,0-.01.01-.02,0,0,0-.01.01-.02,0,0,0-.01.01-.02,0,0,0,0,0,0,0,0,0,0,0,0,0,0,0-.02,0-.02h0s0,0,0,0c0,0,0,0,0,0,0,0,0,0,0,0,0,0,0-.01,0-.02,0-.05,0-.09-.02-.13,0-.01,0-.02,0-.03,0-.01,0-.03-.01-.04,0,0,0,0,0,0,0,0,0,0,0,0,0,0,0,0,0,0,0,0,0-.01,0-.02,0,0,0-.02-.01-.03,0-.02-.01-.03-.02-.04,0,0,0,0,0,0,0-.02-.02-.03-.03-.04-.02-.03-.04-.06-.07-.08,0-.18-.18-2.36-1.72-4.08-.09-.1-.18-.2-.27-.29-.02-.02-.04-.04-.07-.06,0,0,0,0,0,0-.04-.04-.09-.08-.13-.12-.02-.02-.05-.04-.07-.06-.05-.04-.09-.08-.13-.11-.02-.02-.05-.04-.07-.05-.11-.09-.22-.17-.33-.24-.04-.03-.09-.06-.13-.09h0c-.09-.06-.17-.11-.26-.16-.04-.03-.09-.05-.13-.07-.08-.05-.17-.1-.25-.14-.04-.02-.08-.05-.12-.07-.04-.02-.08-.05-.12-.07,0,0,0,0,0,0h.09c.09-.09.09-.18.09-.27,0-.18-.09-.36-.18-.45,0,0,0,0,0-.01,0,0,0,0,0-.01,0,0,0,0,0-.02,0-.01,0-.02,0-.04-.01-.07-.04-.19-.09-.34,0-.02,0-.03-.01-.05,0,0,0-.02,0-.03,0-.02-.02-.05-.02-.07,0-.03-.02-.06-.03-.09-.01-.03-.03-.07-.04-.11,0,0,0,0,0,0-.01-.03-.03-.07-.04-.11,0-.02-.01-.04-.02-.06,0-.02-.02-.04-.03-.07,0-.02-.01-.03-.02-.05-.02-.06-.05-.12-.08-.18-.02-.04-.04-.08-.06-.12-.01-.03-.03-.06-.04-.08h0s-.03-.06-.05-.1c0,0,0-.01-.01-.02-.01-.03-.03-.06-.04-.08-.01-.03-.03-.06-.04-.08-.04-.07-.08-.15-.13-.23-.01-.02-.02-.04-.04-.06-.01-.02-.02-.04-.03-.06-.01-.02-.02-.04-.04-.06-.01-.02-.02-.04-.03-.05-.01-.02-.02-.04-.04-.06-.07-.11-.15-.22-.23-.33-.03-.04-.05-.07-.08-.11-.03-.04-.06-.08-.09-.12-.02-.03-.05-.06-.07-.09-.02-.03-.05-.05-.07-.08,0,0-.01-.01-.02-.02-.04-.04-.07-.08-.11-.13-.08-.09-.17-.18-.26-.27,0,0-.02-.02-.03-.03-.01-.01-.02-.02-.03-.03,0,0,0,0-.01-.01,0,0-.02-.02-.03-.02,0,0-.02-.02-.02-.02-.02-.02-.04-.04-.07-.06-.04-.04-.08-.07-.13-.11-.05-.05-.11-.09-.17-.14-.04-.03-.08-.06-.12-.08s-.08-.05-.12-.08c-.04-.03-.08-.05-.11-.08-.04-.03-.07-.05-.11-.08-.07-.05-.15-.1-.22-.15-.05-.03-.09-.06-.14-.08-.04-.02-.07-.04-.11-.06-.03-.02-.05-.03-.08-.04-.03-.02-.06-.03-.08-.05-.03-.01-.05-.03-.08-.04-.04-.03-.09-.05-.13-.07-.05-.02-.09-.05-.14-.06-.03-.01-.06-.03-.09-.04,0,0,0,0-.01,0-.03-.01-.06-.03-.09-.04-.03-.01-.07-.03-.1-.04l.02-.02s0-.01.01-.01c.01-.01.02-.02.03-.03,0,0,0,0,0,0,0,0,0,0,0,0,0,0,0,0,0,0,0,0,0,0,0-.01,0-.02,0-.04,0-.08,0-.18-.18-.36-.27-.45,0,0,0-.01,0-.02,0,0,0-.01,0-.02,0,0,0,0,0,0h0s0-.02-.01-.03c0,0,0,0,0,0h0s0,0,0,0c0,0,0,0,0,0,0,0,0,0,0,0h0s0,0,0-.01t0,0s-.04-.11-.08-.18c0,0,0,0,0,0,0,0,0,0,0,0,0,0,0-.01,0-.02,0,0,0,0,0-.01,0,0,0,0,0-.01-.03-.07-.07-.14-.11-.23,0,0,0,0,0,0h0s0,0,0,0h0s0,0,0,0h0s0,0,0,0h0s0,0,0,0c0,0,0,0,0,0,0,0,0,0,0,0,0,0,0,0,0,0h0s0,0,0,0c0,0,0,0,0,0,0,0,0,0,0,0,0,0,0,0,0-.01h0s0,0,0,0c-.01-.02-.02-.04-.03-.06-.01-.02-.02-.04-.03-.06-.01-.02-.02-.04-.04-.06-.02-.03-.03-.05-.05-.08,0,0,0,0,0,0h0s0-.01-.01-.02c0,0-.01-.02-.02-.03,0,0,0,0,0,0,0,0,0,0,0,0-.01-.02-.02-.04-.03-.05,0,0-.01-.02-.02-.03,0,0,0,0,0,0,0,0,0,0,0,0,0,0,0-.01,0-.02-.01-.02-.03-.04-.04-.06,0-.01-.02-.03-.03-.04,0,0,0,0,0,0,0,0,0,0,0,0-.01-.02-.03-.04-.04-.06,0,0,0,0,0,0,.15-.15.3-.29.45-.43.18-.17.35-.34.52-.49ZM54.63,9.8c0,1.27.27,2.45.73,3.54,0,.18,0,.27-.09.27-.18.09-.36-.09-.36-.09-.54-1.18-.82-2.36-.82-3.72,0-1.45.36-2.9,1.09-4.26.27-.27.45-.36.63-.45.09,0,.18.09.18.09-.91,1.36-1.36,3-1.36,4.63Zm40.2,24.23s.67-.79,1.74-2.04c.01-.02.03-.03.04-.05l.09-.11c4.07-4.78,13.35-15.68,13.28-15.68l.54.54-15.16,17.61c-.82,1.18-1.09,2.63-1.09,2.63,0,0-.36-1.63.54-2.9Zm-10.07,8.89c2.09.73,3.27,2.63,3.27,2.63v.09q.09.09.18.09c-.54.18-2.99-.27-4.63-.82-1.36-.36-3.27-1.63-4.27-2.36.91.27,1.72.18,2.45.09.91-.09,1.72-.18,2.99.27Zm18.79,33.13c-.91.27-1.63.73-1.82,1.27-.18.09-.36.27-.54.45-.09-.54-.09-1-.18-1.45.18,0,.27-.09.36-.09h.27c.27-.18.54-.27.82-.27.09,0,.27-.09.36-.09.27.09.45.09.73.18Zm-.27-2.09v-.82c.36,1,.91,1.63,1.36,2.18.09.09.09.18.18.27-.09,0-.27.09-.45.09-.09,0-.54-.18-1-.27-.09-.45-.09-1-.09-1.45Zm0,5.54c-.09-.09-.27-.09-.45-.09-.45.09-.82.18-1.27.36-.09,0-.18,0-.36-.09v-.82c.45.18,1.18.36,1.63.36h.45v.27Zm.27.54c-.91.36-1.63.73-1.82,1.27-.18.18-.36.27-.54.36,0-.45.09-.91.09-1.36,0-.09.09-.09.09-.09h.09l.09.09.09-.09c.27-.09.54-.18.82-.27h.36c.27,0,.45,0,.73.09Zm-.73,3.45c-.45,0-.82.09-1.27.36-.09-.09-.27-.09-.45-.18,0-.27,0-.55.09-.82.36.18,1.18.36,1.63.36h.82q.09.09.09.18t-.09.09h-.82Zm.73.54c-.91.36-1.63.82-1.82,1.27-.27.27-.64.45-.91.64.09-.45.09-1,.18-1.54.09-.09.27-.09.36-.18q.09,0,.09.09h.18c.27-.18.54-.27.82-.36h.36c.27,0,.45.09.73.09Zm-.64-8.62h-.09c-.45.09-.82.18-1.27.36-.18-.09-.36-.09-.64-.18-2.09-17.15-15.43-30.77-32.49-33.22.18-.36.27-.91.27-1.18v-1c1.09.27,2.27.45,3,.36h1c.82.54,3.81,1.81,5.35,2h.54c.82.73,3.45,2.36,4.81,2.81,0,0,.64.18,1.45.36.73.91,3,2.9,4.26,3.54,0,0,.27.09.73.27.54,1,2.54,3.45,3.81,4.36,0,0,.45.36,1.09.73.27,1.09,1.91,3.9,2.99,4.99,0,0,.27.27.73.64.09,1,1.27,4.08,2.18,5.26,0,0,.18.18.36.45,0,1.09.64,4.17,1.27,5.45,0,0,.27.54.63,1.27-.09.64-.09,1.63,0,2.72Zm-13.34,19.24l.91-1.72,4.81,2.36.91-2,1.18.64-2.72,5.63-1.18-.54.91-2-4.81-2.36Zm-9.53,11.07l1.82,1.63,2.09-1.09-1.09,2.09,1.72,1.72-2.45-.27-1.18,2.18-.45-2.36-2.27-.45,2.09-1-.27-2.45Zm-16.97,2.9c-2.09,0-4.17-.18-6.08-.64l-13.7-41.56,1-.45-2.99-3.72c5.17-6.26,12.98-10.26,21.78-10.26,15.61,0,28.22,12.61,28.22,28.31,0,3.18-.54,6.26-1.45,9.17-5.35-8.62-7.8-18.33-7.35-29.59l-.18-.18c-4.72,1.63-7.9,3.18-11.16,4.99v-1c0-1.72-.54-3.81-4.54-4.17-5.45-.55-12.89,2.09-22.69,7.99v.09c3.45,4.72,8.71,22.51,9.8,30.13l.18.09c2.81-2.27,5.99-4.08,8.44-4.9-.09.82-.27,1.82-.27,2.9,0,1.91.36,3.99,1.72,5.08,1.27,1,3.18,1.09,5.72.27,3.27-1,6.26-2.9,9.53-4.99,3.27-2.09,6.72-4.27,10.26-5.45-4.17,10.53-14.34,17.88-26.23,17.88Zm11.07,6.63c-.82.27-1.54.27-2.27-.09-.91-.54-1.36-1.63-1.54-2.18-.18-.63-.45-1.72,0-2.72.36-.82,1.18-1.18,1.72-1.36,1.18-.36,1.91-.09,2.27.09.64.36,1.18,1,1.54,2.18.54,1.72.27,3.45-1.73,4.08Zm-8.44,5.08l.09-.09-.09-.09v-.09c.27-.73.64-1.27.91-1.45l-.09-.18c.45-.09.91-.09,1.36-.18-.27,1.09-.82,1.82-1.09,2.09-.54.27-1,1-1.27,1.82-.09-.18-.09-.45-.09-.64v-.45c.09-.27.18-.45.27-.73Zm-.27-1.82c.18,0,.36-.09.54-.09-.18.27-.36.45-.45.82-.09-.27-.09-.54-.09-.73Zm1.63-1.91l-.54-4.72c-.45.45-1.27.91-1.54,1l-.18-1.36c.73-.36,1.18-.64,1.82-1.27l1.54-.18.82,6.35-1.91.18Zm-8.48,8.85l.04.05c.27-.27.63-.73,1.09-1.27v.27c.18.27.27.54.27.82.09.77-.07,1.55-.47,2.09-.02.03-.05.06-.07.09-.18.18-.45.36-.73.45-.26,0-.47-.08-.65-.22-.52-.39-.74-1.24-.8-1.78-.06-1.06.35-2.94.91-4.13.25-.54.54-.93.82-1.05l.18-.09c.18-.27.45-.54.63-.91.09.09.09.27.18.54.09.36.18.82.18,1.09,0,.3-.07.63-.18.96-.29.85-.87,1.73-1.35,2.28-.14.16-.27.29-.37.38l.33.41Zm-20.93-10.3c.1.15.49.79,1.22,1.47.08.07.17.15.25.23.27.23.57.45.92.66.12.07.23.14.36.2.12.06.25.13.38.18.07.03.13.06.2.08.07.03.14.05.21.08.03.02.07.03.1.05.14.06.27.11.41.16.07.02.13.04.2.06.3.07.58.1.84.1v.09c0,.12.05.22.13.31.01.01.02.02.03.04.09.09.2.16.29.2,0,0,.01.01.02.02,0,0,0,0,.01.01,0,0,.01.01.02.02.01.01.02.02.03.04.38.38,1.76,1.67,3.82,2,.91.09,1.54.09,2.09,0,0,.22.24.38.43.48.03.02.06.03.08.04.01,0,.03.01.04.02.18.09,1.91,1.45,4.17,1.45,1.09,0,1.82-.18,2.45-.45v.09c0,.19.22.29.41.36.02,0,.04.02.06.02.02,0,.03.01.05.02.05.02.09.03.12.05h.09c-.18.73-.27,1.63-.27,2.27v.54s0,.07.01.11h0s0,.04,0,.06c0,.01,0,.03,0,.04,0,.02,0,.05.01.07,0,.02,0,.03,0,.05,0,0,0,0,0,.01.01.07.02.13.04.2,0,0,0,.01,0,.02,0,.01,0,.02,0,.03,0,0,0,.02,0,.02,0,.01,0,.02,0,.03.02.06.03.13.05.19v.04s.02.03.03.04c0,.01,0,.03.01.04,0,.01,0,.03.01.04,0,.01,0,.03.01.04,0,0,0,.02,0,.02.01.04.03.07.04.11,0,.02.02.04.03.06,0,.01.01.02.02.04,0,.01.01.02.02.04.03.06.06.12.09.18,0,.01.01.02.02.03.06.1.13.2.2.29,0,.01.02.02.03.03,0,0,.01.01.02.02,0,0,0,0,.01.01.03.03.05.06.08.08,0,0,.02.02.03.03.03.03.06.05.08.07l.03.02s.04.03.06.05c.02.01.04.03.06.04,0,0,0,0,.01,0,.02.01.03.02.05.03.01,0,.02.01.03.02h0s0,.02,0,.03c0,.01,0,.02,0,.03-.03.11-.07.22-.11.32,0,.02-.02.04-.03.06-.02.04-.03.08-.05.11-.02.04-.04.08-.06.12-.02.04-.05.09-.07.13-.02.04-.05.08-.08.13,0,0,0,0,0,0-.03.04-.05.08-.08.12-.05.07-.1.13-.14.19-.19.25-.38.49-.56.72-.14.17-.28.33-.42.48-.07.08-.14.15-.21.23-.07.07-.14.14-.21.21-.05.05-.09.09-.14.14,0,0,0,0,0,0-.09.09-.19.18-.29.26,0,0,0,0,0,0-.54.47-1.11.87-1.78,1.22-.05.02-.09.05-.14.07-.14.07-.28.14-.43.21-.26.12-.54.24-.84.35-2,.82-3.45.82-5.63.73h-.27c-4.08-.18-6.53-1.45-9.89-3.27l-1.27-.73c-3.45-1.82-5.99-3.63-8.17-5.81l6.21-6.96,2.7-3.02c.08.03.16.06.24.08,0,0,.02,0,.02,0,.01,0,.02,0,.03.01.01,0,.02,0,.04.01,0,0,.02,0,.02,0,.06.02.13.04.19.05.01,0,.02,0,.04,0,.02,0,.05.01.07.02.01,0,.02,0,.03,0,.01,0,.02,0,.03,0,0,0,.01,0,.02,0,0,0,.02,0,.03,0,.02,0,.04,0,.06.01,0,0,.02,0,.03,0,0,0,.02,0,.02,0,.02,0,.03,0,.04,0,0,0,.02,0,.02,0,0,0,.02,0,.02,0,.05,0,.1.01.15.02.01,0,.03,0,.04,0,.06,0,.12,0,.18,0,0,0,.01,0,.02,0h.02s.02,0,.03,0h.03v.09c0,.18.18.36.27.45Zm-14.97-31.22h.36c.27.09.54.18.82.36h.18q0-.09.09-.09c.36.18.73.36,1,.54,0,.54.09,1,.18,1.54-.54-.27-1.09-.54-1.54-1-.18-.45-.91-.91-1.82-1.27.27,0,.54-.09.73-.09Zm-1.54-.18c-.27-.09-.54-.18-.82-.18-.09-.27-.27-.54-.27-.91.09,0,.27-.09.27-.09.54.45,1.18.64,2.18.64,0,.09,0,.18.09.27-.73,0-1.27.18-1.45.27Zm1.54-3.81h.36c.27.09.54.18.82.27l.09.09.09-.09h.09c.27.09.54.18.73.36v1.45c-.36-.18-.73-.45-1.09-.73-.18-.54-.91-.91-1.82-1.27.27-.09.54-.09.73-.09Zm-1-.45c0-.09-.09-.27-.18-.36.27,0,.54.09.82.09v.18c-.18.09-.45.09-.64.09Zm3.36-2.81c-.09.45-.09.91-.09,1.36-.45-.18-.82-.45-1.18-.73-.18-.54-.91-1-1.82-1.27.27-.09.54-.09.73-.18.09,0,.27.09.36.09.27,0,.54.09.82.27h.27c.36.09.64.27.91.45Zm-.09-.73h.18c0,.09-.09.09-.09.09l-.09-.09Zm.09,8.08v.09l-.09-.09h.09Zm-.18-5.26v.82c-.36.09-.64.09-.91.18-.36-.18-.82-.27-1.18-.27v-.27c.54,0,1.45-.27,1.82-.54.09.09.18.09.27.09Zm.09,4.08v.73c-.36.09-.73.18-1,.27-.36-.18-.64-.27-1-.36v-.27c.54-.09,1.27-.27,1.63-.45.09,0,.18.09.36.09Zm.45,4.08c2.81,15.97,15.52,28.59,31.49,31.13.09.73.18,1.54.36,2.18l-.09.09c-1-.27-2.09-.45-2.81-.36,0,0-.45,0-1,.09-.82-.64-3.81-1.91-5.35-2,0,0-.18-.09-.54-.09-.82-.73-3.45-2.36-4.81-2.81,0,0-.64-.18-1.36-.36-.82-.91-3.09-2.9-4.36-3.45,0,0-.27-.18-.73-.36-.55-1-2.54-3.45-3.81-4.36,0,0-.45-.36-1.09-.73-.27-1-1.91-3.9-3-4.99,0,0-.27-.27-.73-.64-.09-1-1.27-4.08-2.18-5.26,0,0-.09-.18-.36-.45,0-1.09-.64-4.08-1.27-5.45,0,0-.27-.54-.64-1.27,0-.18,0-.36.09-.64.45-.09,1.09-.27,1.36-.45.27.09.54.18.82.18Zm13.43-33.58l1.18-1.18,4.72,4.81-1.91,1.82-5.35-2,3.63,3.63-.73.73-.64-.73v.73l.09.36-4.54-4.63,1.91-1.91,5.08,1.91-3.45-3.54Zm9.71,1.27l-1.72,1-2.72-4.54-1.82,1.09-.73-1.18,5.35-3.27.73,1.18-1.91,1.09,2.81,4.63Zm3.99,56.63l.36-1.36c.82,0,1.36-.09,2.18-.45l1.54.36-1.63,6.17-1.82-.45,1.18-4.63c-.64.27-1.45.36-1.82.36Zm-8.62-4.63l2.09,1.09,1.82-1.63-.27,2.45,2.09,1.09-2.27.45-.45,2.36-1.18-2.18-2.54.27,1.72-1.72-1-2.18Zm-9.17-26.32c0-6.08,1.91-11.71,5.17-16.34l.18,3.9,1.09-.45,12.52,39.66c-11.07-3.9-18.97-14.43-18.97-26.77Zm5.81,21.42c-.09-.09-.73-.73-1.27-.18-.27.18-.27.45-.09.82l.91,1.54c.18.45.82,1.63-.18,2.54-.82.73-2.09.82-3.54-.73-1.82-2-.91-3.09-.36-3.54l1.27,1.45c-.09.09-.64.64,0,1.27.36.45.82.45,1.09.18.36-.27.18-.73.09-.91l-.73-1.18c-.45-.91-1-1.91.09-2.81,1.09-1,2.45-.54,3.63.73.54.54,1.18,1.54,1.18,2.45-.09.73-.54,1.18-.73,1.36l-1.36-1.36c.18-.18.73-.73,0-1.63Zm-9.71-6.9c.45,1.09,1.54,1,2.63.54.36-.18,1.91-.91,1.27-2.27-.36-.91-1.09-.73-1.36-.73l-.82-1.82c1.91-.82,3,1.18,3.36,2,.27.64.64,1.72.27,2.72-.36,1.09-1.27,1.63-1.91,1.91-.82.36-1.82.54-2.72.18-1-.27-1.54-1.09-1.91-2-.54-1-.64-1.91-.36-2.63.36-.82.91-1,1.09-1.18l.82,1.91c-.54.27-.64.91-.36,1.36Zm1.91-7.26l1.27-.36.45,1.72-1.36.27-.36-1.63Zm3.99,9.8l1.18-.73.91,1.36-1.09.82-1-1.45Zm16.7,7.26c-.09-.18-1-3-1.18-3.72.54.27,1.91.73,2.09.82.09.18,1,3,1.18,3.72-.54-.27-2-.82-2.09-.82Zm-2.36-7.17c0-.18-.91-3-1.18-3.72.64.18,1.91.73,2.09.73.09.18,1,3,1.27,3.72-.64-.18-2-.73-2.18-.73Zm-2.18-7.26c-.09-.18-1-2.9-1.18-3.63.55.18,1.72.64,1.91.73,0,.18.91,2.9,1.18,3.63-.54-.18-1.82-.64-1.91-.73Zm-2.36-7.17c0-.18-.91-3-1.09-3.72.54.18,1.63.64,1.72.64.09.18,1,3,1.27,3.72-.54-.18-1.72-.55-1.91-.64Zm-2.27-7.26c-.09-.18-.91-3-1.09-3.63.54.18,1.54.54,1.63.63.09.18,1,2.9,1.27,3.63-.64-.18-1.63-.64-1.82-.64Zm-2.18-7.08c-.09-.18-.36-1.18-.45-1.45.27-.18.91-.45,1.27-.54.09.36.64,2,.82,2.63-.54-.27-1.54-.63-1.63-.63Zm-1.54-1.54c-.09-.54-.18-4.26-.27-5.26.64.73,3,3.54,3.27,3.9-.45.18-2.54,1.18-3,1.36Zm-1.18-4.54l-1.09,1.63-5.45-3.9,1.18-1.63,5.35,3.9Zm-6.08,0c.73.36.82.82.82,1.18.09.54-.09.91-.09,1.09.64-1.18,1.18-1,2.18-.73.45.18,1.09.36,1.63.45l-1,1.91c-.36-.09-.82-.27-1.45-.45-.73-.27-1-.36-1.36.36l-.36.73,2.36,1.18-.91,1.72-5.99-2.9,1.45-2.9c.54-1.09.82-1.54,1.36-1.72.27-.09.73-.18,1.36.09Zm-1.72,7.35c2.63.64,2.99,2.72,2.63,4.36-.36,1.82-1.72,3.27-4.17,2.72-.45-.09-1.72-.45-2.36-1.45-.63-1.09-.36-2.36-.27-2.9.54-2.72,2.63-3.09,4.17-2.72Zm-4.27,8.8c.54-.54,1.18-.64,1.45-.64v2c-.64.09-.91.64-.91,1.18.09,1.18,1.09,1.54,2.27,1.45.45,0,2.09,0,2.09-1.54,0-1-.73-1.09-1-1.18l-.09-2c2.09,0,2.36,2.18,2.36,3.09,0,.73-.09,1.91-.82,2.72-.73.73-1.82.91-2.54.91-.91.09-1.82-.18-2.54-.82-.73-.64-1-1.63-1-2.63,0-1.09.18-2,.73-2.54Zm29.59,42.75v.45l-.09.09c-.82.36-1.54.64-2.9.64-2.27,0-3.9-1.36-3.99-1.36v-.09c-.09,0-.18-.09-.18-.09.45-.27,2.9-.73,4.63-.73.73-.09,1.72.09,2.72.27-.09.27-.18.54-.18.82Zm.18,1.27c-.09,0-.18-.09-.18-.09,0,0,.09,0,.09-.09q.09.09.09.18Zm-9.89-2.09c-2.18-.36-3.72-2-3.72-2l-.09-.09q-.09,0-.09-.09c.45-.18,2.99-.27,4.63-.09,1.45.18,3.81,1.18,4.81,1.72-1.09-.09-1.82.09-2.54.27-.91.27-1.72.45-2.99.27Zm-4.72-5.08c1.36.36,3.36,1.63,4.27,2.36-.91-.27-1.72-.18-2.45-.09-.91.09-1.72.27-2.99-.27-2.09-.73-3.18-2.63-3.27-2.63v-.09q-.09-.09-.18-.09c.54-.18,2.99.27,4.63.82Zm14.97,5.45c0-.27.09-.45.27-.73v-.18c0-.09-.09-.09-.09-.09.27-.73.64-1.27,1-1.45l-.27-.36c.45.09,1,.18,1.45.18-.27,1-.82,1.63-1,1.91-.54.27-1,1-1.36,1.82,0-.18-.09-.45-.09-.64s0-.27.09-.45Zm-.09-2.9c.27,0,.54.09.82.09-.27.27-.45.54-.73,1,0-.36-.09-.73-.09-1.09Zm2.99,5.17c.09.18.36.18.54.18,0,0,.09.09.18.09h-.09c-.27.09-.54.09-.82.09.09-.18.09-.27.18-.36Zm.64-.91c-.18.09-.27.18-.36.27,0-.36.09-.73.09-1.27.09,0,.09-.09.18-.09v.36c0,.27.09.45.09.73Zm0,.73v-.09h-.18c0-.09.18-.18.27-.27.09.09.09.18.09.27v.09h-.18Zm0-2.27c-.09,0-.18.09-.36.09-.09-.54-.27-1.09-.45-1.36.09-.36.18-.73.27-1.09h.54c0,.64.09,1.18.27,1.72-.09.18-.18.45-.27.64Zm-.91-3.99c-.82-.09-1.63-.27-2.09-.91-.36-.36-.36-.82-.36-1.09l1.72.18c0,.36.36.64.91.64,1,.09,1.18-.73,1.27-1.82-.36.36-.82.54-1.63.54-.82-.09-1.27-.36-1.63-.73-.36-.36-.54-.91-.54-1.54.09-1.27,1.27-2.09,3-2,1.72.09,2.27,1.09,2.45,1.63.18.63.27,1.27.27,2-.09.73-.27,1.63-.91,2.36-.73.73-1.54.82-2.45.73Zm1.82,1.63c-.09.18-.27.45-.36.73-.09-.27-.09-.45-.09-.73h.45Zm-.45,2.54c.09-.27.18-.45.27-.73l.09-.09-.09-.09v-.09c.27-.73.64-1.27.91-1.45h.45c.27,0,.54,0,.73-.09-.27.91-.73,1.54-1,1.82-.54.27-1,1-1.27,1.82-.09-.18-.09-.45-.09-.64v-.45Zm-8.8-75.42l1.91-.64,2.09,6.26-1.82.64-.91-2.54-2.18.73.82,2.63-1.82.54-2.09-6.26,1.82-.64.82,2.45,2.27-.73-.91-2.45Zm8.26-7.62c-.18.18-.45.27-.64.36v-.09c.09-.27.18-.54.27-1v-.18c.09,0,.18,0,.27-.09v.09c0,.27,0,.64.09.91Zm0,.45c.09.36.18.64.18.82h-.73c0-.18-.09-.27-.27-.45.36-.09.64-.18.82-.36Zm-.27,1.45c.18,0,.36-.09.45-.09-.09.27-.18.64-.18,1.09v.18c0,.36.09.63.27,1h-.64c.09-.36.18-.64.18-.91,0-.54,0-.91-.09-1.27Zm2.36,4.17h2.36l2.54,6.81-2.18-.09-.45-1.36-2.72-.09-.54,1.36-1.91-.09,2.9-6.53Zm1.27-2.9c0,.18-.09.54-.18.82h-.82l-.09-.09-.09-.09c-1-.36-1.82-3.63-1.72-5.17,0-.73.36-2,1.36-2,.36,0,.54.27.73.45.45.54.64,1.36.54,2.18,0,.27-.09.54-.18.82l-.09.27c-.36-.54-.82-1-1.09-1.27l-.36.45c.73.54,2,2.36,2,3.63Zm.82-2c-.09,0-.27.09-.36.09h-.36c-.09-.18-.18-.27-.27-.45,0-.18.18-.54.18-.54.09-.27.18-.54.27-1v-.36h.27v.18c0,.54.09,1.36.27,2.09Zm.09,2.9h-.64c.09-.36.18-.73.18-.91,0-.63-.09-1.09-.18-1.45h.27s.18-.09.45-.09c-.18.18-.36.64-.36,1.27v.18c.09.36.09.63.27,1Zm-2.72-.09c-.27,0-.54,0-.82.09-.09-.18-.18-.36-.18-.54s-.09-.27-.09-.45.09-.45.18-.64c.18.64.54,1.18.91,1.54Zm2.99-.45v-.45c0-.18,0-.45.09-.64.27.73.64,1.45,1.09,1.72-.27,0-.64-.09-1-.09-.09-.18-.18-.36-.18-.54Zm13.16,12.25c.18,0,.91.45,1.27-.18.18-.27.18-.54-.18-.82l-1.27-1.27c-.36-.36-1.27-1.27-.64-2.45.54-.91,1.82-1.36,3.63-.36,2.36,1.36,1.72,2.63,1.36,3.27l-1.63-1c.09-.09.45-.73-.36-1.18-.45-.36-1-.27-1.18.09-.18.45.09.73.27,1l1,.91c.73.64,1.54,1.45.82,2.63-.73,1.36-2.27,1.27-3.72.36-.64-.36-1.63-1-1.82-1.91-.18-.73.09-1.36.27-1.54l1.63.91c-.09.27-.45.91.54,1.54Zm-3.9-1l-2.54-.73-.82-5.63-1.45,4.99-1.63-.45,1.82-6.44,2.63.73.91,5.45,1.36-4.72,1.54.45-1.81,6.35Zm18.33,19.33c.36,1.18,1.27,1.09,1.91.91l3.72-1.09.54,1.82-3.72,1.09c-.64.18-1.45.27-2.09,0-.91-.45-1.45-1.63-1.63-2.45-.91-3.18.91-3.72,2-3.99l3.63-1.09.54,1.91-3.81,1.09c-.36.09-.73.27-.91.45-.27.36-.36.91-.18,1.36Zm-1.91-2.9l-1.09-1.91.91-1.09-1.36-2.36-1.45.18-.91-1.63,7.08-.91,1.18,2-4.36,5.72Zm-.09-9.08c-.91.82-1.82.54-2.09.45-.54-.18-1.09-.82-1.36-1.18l-.82-.91-1.82,1.63-1.27-1.45,4.9-4.45,2.18,2.36c.36.45.82,1,.91,1.63.18.64,0,1.36-.64,1.91Zm-18.88,24.87s-1,.64-1.36.82c-.09-.73-.18-1.36-.27-2.09,3.99-2.72,7.8-4.72,12.89-6.17.09.18.82,2,.91,2.18-4.72.73-8.62,3.18-12.16,5.26Zm13.07-2.63c0,.09.27.73.27.73,0,0,.45.82.54,1-4.45,1.09-9.08,3.27-13.98,6.62-.09-.27-.27-1.91-.27-2.09,3.81-2.63,8.44-4.81,13.43-6.26Zm-14.61-2.36s-.18.09-.36.27c-.09-.82-.09-1.63-.09-2.45,4.27-2.72,7.99-4.36,12.34-5.35.09.27.09.64.09.91,0,.45,0,.91.18,1.36-4.72.64-8.53,3-12.16,5.26Zm.09-5.26s-.27.18-.55.36c0-.73,0-1.45.09-2.18,3.72-2.54,6.53-3.99,11.43-5.17,0,.27.27,2.09.27,2.27-5.26.64-8.53,2.9-11.25,4.72Zm-.73-4.9c-1.91-1.18-5.99-.36-6.9,0,0-.18-.18-1.09-.18-1.09,0,0-.18-1-.18-1.18,2.36-.91,4.99-1,7.53-.09-.09.82-.18,1.54-.27,2.36Zm11.53-5.08c-5.54,1.72-7.44,2.9-9.35,4.08,0,0-1.09.64-1.63,1,.09-.91.18-1.72.27-2.63,3.36-2,5.9-3,10.89-4.81,0,.27-.18,2.18-.18,2.36Zm-10.98.82c-2.81-1.45-5.45-1.63-8.26-.54-.09-.36-.09-.73-.09-1.09-.09-.27-.09-.64-.18-.91,3.18-.91,6.26-1.36,8.71,1.36-.09.36-.18.73-.18,1.18Zm-8.17,4.63l-.54.82.54.73-.91-.27-.64.82v-1l-.91-.27.91-.27.09-1,.54.73.91-.27Zm-1.72-6.53l-.91-.27-.64.73v-.91l-.91-.36.91-.27.09-1,.54.82.91-.27-.54.73.54.82Zm-1.09,5.54c.09,6.44-10.26,6.44-10.35,0-.18-6.53,10.16-6.53,10.35,0Zm-9.8,6.35l.09-.91.64.73.82-.27-.45.73.54.82-1-.27-.64.73v-.91l-.82-.36.82-.27Zm.82,2.27c4.63-2.54,9.35-5.17,15.16-5.17.64,0,2.63.09,3.99.36,0,.64-.09,1.27-.09,1.91-5.54-1.82-11.43,1.18-16.7,3.81,0,0-2.81,1.45-2.99,1.54,0-.18-.64-1.63-.64-1.72.09-.09,1.27-.73,1.27-.73Zm19.06.27c0,.82.09,1.54.09,2.36-6.81-1.91-12.52,1.09-18.24,4.63-.18-.36-.18-.73-.27-1.09,0-.27,0-.64-.09-.91,5.99-3.54,12.16-7.17,18.51-4.99Zm-16.61,9.62c5.9-3.45,10.53-6.17,16.88-4.9.09.64.18,1.27.18,1.91-6.17-1.36-10.44,1.27-14.88,3.99,0,0-2,1.18-2.18,1.27-.09-.18-.54-1.54-.54-1.54,0,0-.09-.27-.09-.36.09-.09.64-.36.64-.36Zm3.09,3.45c4.72-2.81,8.8-5.26,14.34-4.26.09.64.18,1.18.36,1.82-5.99-.82-9.89,1.63-14.43,4.63,0,0-2.09,1.27-2.27,1.36-.09-.18-.54-1.63-.54-1.63,0,0-.09-.18-.09-.27.09-.09,2.63-1.63,2.63-1.63Zm6.99,2.45c2.27-1.09,4.54-2.18,7.08-2.9.18,0,.36,0,.36.09s.09.09.09.18-.09.27-.18.54c-2.27,1.82-4.54,2.81-6.9,3.9,0,0-.45.18-.54.18-.09-.18-.09-.45-.09-.64,0-.45.09-.91.18-1.36Zm11.62-.36c3.45-2.09,7.35-4.54,12.43-6.53.18.27.27.54.36.82.09.27.18.64.45,1-4.36,1.63-7.99,3.9-11.53,6.17-3.27,2.09-6.44,4.08-9.53,4.99-.45.18-2.09.45-3-1,3.9-1.18,7.08-3.18,10.8-5.44Zm-28.86-24.78l.82-.27.09-1,.64.82.82-.36-.54.82.64.82-1-.27-.64.73v-.91l-.82-.36Zm40.11,31.67l1.36.36,1.63-2.18-.73-1.18,1.18-1.54,3.63,6.17-1.45,1.91-6.99-1.82,1.36-1.72Zm10.07-8.26l.45-1.91c.18,0,.91.18,1.18-.73.09-.54-.09-.91-.45-1-.54-.18-.73.27-.91.45l-.64,1.18c-.45.91-.91,1.91-2.36,1.54-1.36-.36-1.72-1.82-1.27-3.54.18-.73.54-1.82,1.36-2.27.64-.36,1.27-.18,1.54-.18l-.45,1.91c-.27,0-1-.18-1.27.91-.09.18-.27,1,.45,1.18.36.09.54,0,.82-.36l.82-1.63c.18-.36.82-1.54,2.18-1.18,1.09.27,1.82,1.27,1.27,3.36-.64,2.63-2,2.45-2.72,2.27Zm-3.18-7.71l.18-2,6.62.54-.18,2-6.62-.54Zm1.63-2.63l-1.27.09-.36-5.08,6.62-.36.18,1.91-5.35.36.18,3.09Zm-15.61-41.75c2.18.36,3.72,2,3.72,2l.09.09c.09,0,.09.09.09.09-.45.27-2.99.27-4.63.09-1.45-.18-3.72-1.09-4.81-1.63,1.09,0,1.82-.18,2.54-.36.91-.27,1.72-.45,2.99-.27Zm-10.35-2.27c.18.09.36.18.36.18h.09c.09,0,.18.09.18.09-.09.09-.45.27-.91.45.09-.27.18-.45.27-.73Zm.73,1c.82-.36,1.54-.73,2.9-.73,2.27,0,3.9,1.36,3.99,1.45.09,0,.18.09.18.09-.36.27-2.9.73-4.63.82-.82,0-2.09-.18-3.18-.45-.09-.36-.18-.54-.36-.82.36-.09.73-.27,1.09-.36Zm-1,2.63c0,.27-.09.73-.18,1.09l-.09.09c-.18-.09-.36-.09-.54-.09-.09-.09-.18-.27-.27-.36l-.09-.09c-1-.36-1.82-3.63-1.72-5.17,0-.73.36-2,1.36-2,.36,0,.64.27.73.45.45.54.73,1.36.64,2.18-.09.27-.18.54-.27.82l-.09.27c-.36-.54-.82-1-1.09-1.27l-.36.45c.73.54,2,2.36,2,3.63Zm-.18-34.4c.09,0,.27.09.45.36.45.82.64,1.72.64,2.63,0,1.54-.54,3-1.45,4.08-.18.09-.54.18-.64.09v-.18c1-1.09,1.54-2.45,1.54-3.99,0-.91-.18-1.82-.64-2.72,0-.09,0-.18.09-.27Zm-10.16,3c0-2.63,2.18-4.9,4.9-4.9s4.9,2.27,4.9,4.9c0,1.36-.54,2.59-1.43,3.47-.17.17-.34.32-.53.46-.06.05-.13.09-.19.14-.03.02-.07.04-.1.06-.07.04-.13.08-.2.12-.03.02-.07.04-.1.06-.17.09-.35.18-.54.25-.11.04-.21.08-.32.11-.07.02-.14.04-.22.06h0c-.11.03-.22.05-.33.08-.04,0-.08.01-.11.02-.27.04-.54.07-.82.07s-.55-.02-.82-.07c-.04,0-.08-.01-.11-.02-.11-.02-.22-.05-.33-.08-.07-.02-.15-.04-.22-.06-.11-.03-.21-.07-.32-.11-.19-.07-.37-.16-.54-.25-.03-.02-.07-.04-.1-.06-.07-.04-.14-.08-.2-.12-.03-.02-.07-.04-.1-.06-.06-.04-.13-.09-.19-.14-.19-.14-.37-.29-.53-.46-.88-.88-1.43-2.11-1.43-3.47Zm-8.26,13.85v4.48c0,.18-.18.27-.27.27-.14,0-.23-.06-.26-.17,0-.03-.01-.06-.01-.1v-5.08h27.59c.09,0,.27.09.27.27,0,.09-.18.18-.27.18h-27.04v.15Zm.73,6.29c-.08,0-.22-.13-.26-.22,0-.02-.01-.03-.01-.05,0-.18.18-.27.27-.27h26.32c.09,0,.27.09.27.27,0,.09-.18.27-.27.27h-26.32Zm6.9,6.72c.09-.73.45-2,1.45-2,.27,0,.54.27.73.45.45.54.64,1.36.54,2.18,0,.27-.09.54-.27.82l-.09.27c-.36-.54-.73-1-1-1.27l-.36.45c.64.54,1.91,2.36,1.91,3.63,0,.18,0,.64-.09.91-.27.09-.45.09-.73.09-.09-.09-.18-.18-.18-.27l-.18-.09c-.91-.36-1.82-3.63-1.72-5.17Zm.09,4.9v-.45c0-.18.09-.45.09-.64.36.82.82,1.54,1.27,1.82-.27,0-.64.09-1,.09v-.09c-.18-.27-.27-.45-.36-.73Zm1.18,2.81l1,6.62-1.91.27-1.09-6.63,2-.27Zm-1.45-5.08c0,.09,0,.18.09.27-.09.09-.09.18-.09.27h-1.09c.45-.18.73-.36,1.09-.54Zm-3.54-1.09c1.18-.54,2.45-.54,3.27-.45,0,.36.09.73.09,1.09-.82.54-1.91,1.18-2.81,1.63-1.27.64-3.54,1.09-4.72,1.18.91-.45,1.36-1,1.91-1.63.54-.64,1.09-1.36,2.27-1.82Zm-8.35,3.99c.45-.73.91-1.45,2-2.18,1.91-1.27,4.08-1.09,4.08-1.09h.09q.09-.09.18-.09c-.18.54-2,2.27-3.36,3.27-1.18.82-3.54,1.72-4.63,2.09.82-.64,1.27-1.36,1.63-2Zm-5.99,3.45c.36-.82.73-1.63,1.72-2.54,1.63-1.54,3.81-1.63,3.81-1.63h.09v-.09h.18c-.09.45-1.63,2.54-2.81,3.72-1,1-3.27,2.27-4.36,2.72.73-.82,1.09-1.54,1.36-2.18Zm-5.63,4.63c.27-.91.45-1.72,1.27-2.81,1.45-1.72,3.63-2.18,3.63-2.18l.09-.09c.09,0,.09-.09.18-.09-.09.54-1.27,2.72-2.27,4.17-.91,1.18-2.81,2.72-3.81,3.45.54-.91.73-1.63.91-2.45Zm-12.98-5.81s-5.65-4.68-10.62-8.78c-.03-.02-.06-.05-.09-.07-3.84-3.16-7.25-5.95-7.35-5.95l.09-.11.45-.52,17.88,14.88c1.09.82,2.63,1,2.63,1,0,0-1.63.45-3-.45Zm8.62-1.18s-1.76-2.2-4.5.42c.94-.97,1.62-3.04.06-4.87l-8.26-8.8,8.8,8.35c1.81,1.63,3.99.73,4.99-.18-2.9,2.81-.64,4.63-.64,4.63,0,0,2.45,2.63,3.9,4.36-1.72-1.54-4.36-3.9-4.36-3.9Zm0,11.98c0-.91.09-1.72.73-2.9,1.09-2,3.09-2.81,3.09-2.81h.09v-.09c.09,0,.09-.09.18-.09,0,.64-.82,2.99-1.54,4.45-.64,1.27-2.27,3.09-3.09,3.9.36-.91.45-1.72.54-2.45Zm-3.63,6.17c-.09-.45-.09-.82-.09-1.27s.09-1.09.27-1.72c.82-2.09,2.72-3.27,2.72-3.27l.09-.09.09-.09c0,.09.09.09.09.18,0,.82-.45,2.9-.91,4.45-.45,1.27-1.63,3.27-2.36,4.27.09-.45.18-.91.18-1.27s-.09-.82-.09-1.18Zm-.09,3.18c.73-.82,2.36-3.45,2.72-4.9,0,0,.18-.54.45-1.36.91-.73,2.81-3.09,3.45-4.36,0,0,.18-.27.36-.64,1-.54,3.45-2.63,4.27-3.81.09,0,.36-.54.82-1.18,1-.27,3.81-1.91,4.9-3,0,0,.27-.27.64-.64,1.09-.18,4.08-1.36,5.26-2.27.09,0,.18-.09.45-.27,1.09,0,4.17-.64,5.44-1.27,0-.09.54-.36,1.27-.73.36.09.82.09,1.36.09,0,.18-.09.45-.09.64v.18c.09.45.18.91.36,1.27v.09c-16.79,2.63-29.95,16.06-32.04,33.03-.45.09-.82.18-1.18.27-.36-.18-.73-.27-1.09-.36.36-1.27.73-2.9.64-3.9,0,0,0-.45-.09-1,.64-.82,1.82-3.81,2-5.35,0,0,.09-.27.09-.54Zm-2.72-.27c.36-2.27,2-3.72,2-3.72v-.09q.09-.09.18-.18c.09.27.18,1.18.18,2.27,0,.82-.09,1.72-.09,2.45-.18,1.36-1.18,3.72-1.72,4.81.09-.18.09-.36.09-.54,0-.82-.18-1.45-.36-2-.18-.64-.36-1.27-.36-2,0-.36,0-.64.09-1Zm-2,6.72c0-2.27,1.36-3.99,1.36-3.99h.09c0-.09,0-.18.09-.27.27.45.73,2.99.73,4.72v.18c0,1-.27,2.54-.64,3.72-.09,0-.27,0-.45.09-.09-.64-.27-1.09-.54-1.54-.27-.73-.64-1.54-.64-2.81v-.09Zm-.09,3.27v-.09c0-.09.09-.18.09-.18.18.18.36.82.64,1.54-.09.09-.18.09-.27.09-.27-.09-.64-.18-1-.18.27-.73.54-1.18.54-1.18Zm-1.91,4.27c-.73.09-1.54-.18-2.09-.64-.18-.18-.45-.36-.45-.73-.09-1,1.27-1.36,1.91-1.36,1.54-.09,4.9.73,5.17,1.72l.09.09c.27.27.64.45.91.64-.09.09-.27.18-.45.18-.36.18-.91.27-1.18.27-1.27,0-2.99-1.27-3.63-2l-.36.36c.27.27.73.73,1.27,1.09l-.27.09c-.27.09-.54.18-.91.27Zm2.54,1.09c-.09,0-.18.09-.18.09-.36-.18-.73-.27-1.18-.27.09-.45.27-.73.27-.91h.09c.18.09.36.27.64.36.09.18.18.45.36.73Zm-1.63,2.63c-.27.09-.54.18-.91.27-.73.09-1.54-.18-2.09-.64-.18-.09-.45-.36-.45-.64-.09-1.09,1.27-1.45,1.91-1.45,1.54-.09,4.9.82,5.17,1.72l.09.09c.27.27.64.45.91.73-.09,0-.27.09-.45.18-.36.09-.91.18-1.18.18-1.27,0-2.99-1.27-3.63-1.91l-.36.27c.27.36.73.73,1.27,1.09l-.27.09Zm-.64,2.54l-.36.36c.27.27.73.64,1.27,1l-.27.09c-.27.18-.54.27-.91.27-.73.09-1.54-.09-2.09-.54-.18-.18-.45-.45-.45-.73-.09-1,1.27-1.36,1.91-1.45,1.54-.09,4.9.82,5.17,1.72l.09.18c.27.18.64.45.91.64-.09.09-.27.09-.45.18-.36.09-.91.18-1.18.18-1.27,0-2.99-1.27-3.63-1.91Zm3.72,2.45v.09l-.09-.09h.09Zm-1.63,2.54c-.36-.91-.45-1.72-.45-2.45v-.54c.36.27.91.36,1.63.45.36.64.73,1.36,1.09,2,.64,1.27,1,3.54,1.18,4.72-.45-.82-1.09-1.36-1.63-1.82-.73-.64-1.36-1.18-1.82-2.36Zm1.72,6.35c-.91-1.45-1.09-3.09-1.09-3.72,0-.18.09-.36.09-.36h-.09v-.27c.54.18,2.27,2.09,3.27,3.45.82,1.09,1.72,3.45,2,4.54-.64-.82-1.27-1.18-1.91-1.63-.73-.45-1.45-.91-2.27-2Zm3.18,6.35c-1.54-1.72-1.72-3.9-1.72-3.9v-.09q0-.09-.09-.18c.54.09,2.54,1.72,3.81,2.9,1,1,2.18,3.18,2.63,4.27-.73-.73-1.45-1-2.18-1.36-.82-.36-1.54-.64-2.45-1.63Zm4.36,5.99c-1.72-1.45-2.27-3.54-2.27-3.54v-.09c-.09-.09-.09-.18-.09-.18.54,0,2.72,1.27,4.08,2.27,1.18.82,2.81,2.81,3.45,3.81-.82-.54-1.63-.82-2.36-1-.91-.18-1.82-.45-2.81-1.27Zm2,1.82c-.09-.09-.09-.18-.09-.18.54-.09,2.9.82,4.45,1.54,1.18.54,3.09,2.18,3.9,3.09-.91-.45-1.72-.45-2.45-.54-.91,0-1.82-.09-2.99-.73-1.91-1.09-2.81-3.09-2.81-3.18Zm1,4.54l.27.45-7.44,8.26c-.09-.18-.18-.27-.27-.36l7.44-8.35Zm-21.51,24.69c-2.27.09-.27-.45-.27-.45l8.62-9.53c.09.09.18.27.27.36l-8.62,9.62Zm50.91,12.34c-1.09-8.35-6.9-9.35-6.9-9.35-5.44-.18-9.17-1-13.7-2.54-8.08-2.81-12.25-5.9-18.6-11.8-5.26-4.99-7.81-8.35-11.44-14.61-.45-.82-.82-1.54-1.18-2.36-1.11-2.3-2.39.86-3.09,3.1,0,0,0,0,0,0-.21.68-.37,1.28-.45,1.62l-.18-.45.07-.29,1.84-7.61c-1.09-2.72-2.18-6.08-3-8.8-.18-.64.27-.73.27-.73.82,2.9,2,6.26,3.18,9.26l7.26.44h.18s.36.37.36.37c-.3.02-.82,0-1.43-.02h0c-2.31-.07-5.98-.04-4.47,2.84.27.64.63,1.27,1,1.91,3.63,6.26,6.17,9.62,11.43,14.61,6.26,5.9,10.44,8.99,18.51,11.8,5.17,1.72,8.35,2.36,13.7,2.54,0,0,6.35-.09,6.62-9.8v19.88Zm.64-24.41c-.09.18-.36.36-.73.45-1,0-1.36-1.27-1.36-2-.09-1.54.73-4.81,1.72-5.17l.09-.09c.27-.27.45-.54.64-.91.09.09.18.27.27.54.09.36.18.82.18,1.09,0,1.27-1.27,3.09-2,3.63l.36.45c.27-.27.73-.73,1.09-1.27l.09.27c.09.27.18.54.27.82.09.82-.18,1.63-.64,2.18Zm1.63-3.99c-.27.09-.64.09-.91.18.36-.54.54-1.18.54-2.27v-.18c.09,0,.18,0,.27-.09,0,.09-.09.18-.09.36v.18c0,.64.27,1.18.36,1.36-.09.09-.18.27-.18.45Zm0-2.81h-.09s-.09,0-.09.09c-.09,0-.18-.09-.27-.09-.09-.36-.27-.91-.45-1.09.09-.36.18-.73.27-1.09h.54c.09.64.09,1.18.27,1.72-.09.09-.09.27-.18.45Zm1.63,7.26c-1,0-1.36-1.27-1.36-2-.09-1.54.73-4.81,1.72-5.17l.09-.09c.27-.27.45-.54.64-.91.09.09.18.27.27.54.09.36.18.82.18,1.09,0,1.27-1.27,3.09-2,3.63l.36.45c.27-.27.73-.73,1.09-1.27l.09.27c.09.27.18.54.27.82.09.82-.18,1.63-.64,2.18-.09.18-.36.36-.73.45Zm1.36,1.36c-.1-.15-.19-.31-.27-.47-.03-.05-.05-.11-.07-.16-.02-.03-.03-.07-.04-.1,0-.02-.02-.04-.03-.07-.01-.03-.02-.07-.04-.1-.02-.05-.03-.11-.05-.16,0-.03-.02-.05-.02-.08,0-.02-.01-.04-.02-.05,0-.02,0-.04-.01-.05,0,0,0,0,0,0,.04-.03.08-.07.11-.11,0,0,0,0,0-.01.01-.01.03-.03.04-.04,0,0,0-.01.01-.02.03-.03.06-.07.09-.11,0,0,0-.01.01-.02.04-.05.08-.11.12-.16.04-.06.08-.11.11-.17.07-.12.14-.25.19-.38.19-.44.3-.93.3-1.38v-.45c-.09-.36-.18-.64-.27-.91,0,0-.18-.36-.18-.54.18-.18.27-.45.45-.64.45.06,1.44.22,2.63.05.09-.01.19-.03.28-.05.02,0,.04,0,.06-.01.1-.02.21-.04.31-.07.29-.07.59-.16.89-.28.54-.27,1-.54,1.36-.82.02.03.04.05.06.07.02.02.04.04.06.05.02.01.04.03.07.03,0,0,0,0,0,0,.08.03.16.03.24.03h0s.05,0,.08-.01c.03,0,.06-.02.09-.03.04-.01.08-.03.12-.05.18,0,2.36.18,4.36-1.18.05-.03.09-.06.13-.08.13-.08.25-.17.36-.26.11-.08.21-.17.31-.26.28-.26.49-.51.65-.77.04.05.08.09.13.11.09.04.2.04.3.02.02,0,.04-.01.06-.02.02,0,.04-.01.06-.02s.04-.02.05-.02c.03-.01.05-.02.07-.04.02-.01.03-.02.04-.03.27,0,2.45-.18,4.17-1.72.45-.45.8-.91,1.06-1.34.08-.13.15-.26.21-.38.06-.13.12-.25.17-.37,0,0,0,.09.09.09.18.18.54,0,.64-.09.03,0,.07,0,.13-.02,0,0,.01,0,.02,0,.11-.02.26-.06.45-.12.03,0,.06-.02.08-.03.02,0,.03-.01.05-.02.01,0,.03-.01.04-.02.01,0,.03,0,.04-.01.02,0,.04-.02.06-.02.04-.02.08-.03.12-.05.02,0,.04-.02.06-.03.06-.03.13-.05.19-.08.03-.01.06-.03.09-.04.02,0,.04-.02.06-.03.04-.02.07-.04.11-.05,0,0,0,0,.01,0,.02-.01.04-.02.06-.03.03-.01.05-.03.08-.04l.07-.04.04-.02s.03-.02.04-.02c.02-.01.04-.02.06-.03,0,0,0,0,0,0h0s.02-.02.02-.02c.02-.01.04-.03.07-.04.02-.01.04-.03.07-.04.03-.02.06-.04.09-.06.01,0,.03-.02.04-.03.02-.01.04-.03.06-.04.07-.05.15-.1.23-.15.02-.01.03-.02.05-.04.09-.06.18-.13.27-.21.02-.01.03-.02.04-.04.05-.04.11-.09.16-.13.02-.02.04-.03.05-.05.02-.02.03-.03.05-.05.08-.07.15-.14.22-.21,0,0,0,0,0,0,0,0,0,0,0,0t0,0h0s8.48,9.53,8.48,9.53c-2.45,2.45-5.17,4.63-9.17,6.72l-1.27.73c-3.36,1.82-5.72,3.09-9.89,3.27h-.27c-2.18.09-3.54.09-5.63-.73-.29-.11-.57-.23-.84-.35-.15-.07-.29-.14-.43-.21-.05-.02-.09-.05-.14-.07-.11-.06-.21-.11-.31-.17-.1-.06-.2-.12-.3-.18-.1-.06-.19-.12-.29-.19-.47-.32-.9-.67-1.32-1.08-.52-.51-1.02-1.11-1.55-1.83Zm.64-7.35c.82-.54,2.18-1.36,3.27-1.91,1.27-.64,3.54-1.09,4.72-1.18-.91.45-1.36,1-1.82,1.63-.64.73-1.18,1.36-2.36,1.82-1.63.73-3.27.45-3.9.36.09-.18.09-.45.09-.73Zm-.09-1.27h1.45c-.54.18-1,.45-1.36.73,0-.18,0-.45-.09-.73Zm18.24-5.81c-.36.91-.73,1.63-1.72,2.54-1.63,1.54-3.81,1.72-3.81,1.72h-.09c-.07,0-.15,0-.17.05.15-.6,1.65-2.62,2.8-3.77,1-1,3.27-2.27,4.36-2.72-.73.82-1.09,1.54-1.36,2.18Zm2.81-3.63c.82-1.18,2.72-2.72,3.72-3.36-.54.82-.73,1.63-.91,2.36-.27.91-.45,1.82-1.27,2.81-1.45,1.72-3.63,2.18-3.63,2.18v.09h-.09c-.09,0-.09.09-.18.09.09-.54,1.27-2.72,2.36-4.17Zm-8.8,7.08c-.45.73-.91,1.45-2,2.18-1.91,1.27-4.08,1.09-4.08,1.09l-.09.09h-.18c.18-.54,2.09-2.27,3.36-3.27,1.18-.82,3.54-1.72,4.63-2.09-.82.73-1.27,1.36-1.63,2Zm34.03,19.88s2,.45-.27.45l-8.71-9.8c.09-.09.18-.18.27-.36l8.71,9.71Zm-1.91-25.32c.36-.64.73-1.27,1.09-1.91,1.44-2.87-2.18-2.9-4.52-2.84h0c-.62.02-1.15.04-1.47.02l.36-.36.26-.02,7.18-.44c1.27-3,2.36-6.35,3.27-9.26,0,0,.45.09.18.73-.82,2.72-1.82,6.08-3,8.8l1.96,7.76.03.13-.18.45c-.11-.35-.29-.97-.52-1.68,0,0,0,0,0,0-.74-2.24-1.98-5.31-3.02-3.04-.36.82-.82,1.54-1.27,2.36-3.54,6.26-6.17,9.62-11.43,14.61-6.26,5.9-10.44,8.98-18.51,11.8-4.63,1.54-8.26,2.36-13.7,2.54l-.36-.73c5.44-.18,8.53-.82,13.7-2.54,8.08-2.81,12.25-5.9,18.51-11.8,5.26-4.99,7.9-8.35,11.43-14.61Zm-12.43,9.35c-.09.09-.18.27-.27.36l-7.44-8.26.27-.45,7.44,8.35Zm-3.63-16.97c-.09.91-.09,1.82-.82,2.9-1.09,2-3.09,2.81-3.09,2.81l-.09.09q-.09.09-.18.09c0-.64.82-2.9,1.54-4.45.64-1.27,2.27-3.09,3.09-3.9-.36.91-.45,1.72-.45,2.45Zm3.54-6.17c.09.45.09.82.09,1.27,0,.54-.09,1.09-.27,1.72-.82,2.18-2.72,3.27-2.72,3.27l-.09.09c0,.09-.09.09-.09.09v-.18c0-.82.36-2.9.82-4.45.45-1.27,1.63-3.27,2.36-4.27-.09.45-.18.91-.18,1.27,0,.45.09.82.09,1.18Zm.18-3.72s0,.27-.09.54c-.73.82-2.36,3.45-2.72,4.9,0,0-.18.54-.36,1.36-1,.73-2.9,3.09-3.54,4.36,0,0-.18.27-.36.73-1,.54-3.45,2.54-4.27,3.72,0,.09-.36.54-.82,1.18-1,.27-3.81,1.91-4.9,3,0,0-.27.27-.64.73-1,.09-4.08,1.27-5.26,2.18-.09,0-.18.09-.45.36-1.09,0-4.17.64-5.44,1.27,0,0-.54.27-1.27.64-.45-.09-1.18-.09-2-.09-.09-.27-.27-.54-.27-.64.09-.45.18-.91.27-1.45,16.34-2.36,29.4-15.06,32.13-31.31.09,0,.27-.09.36-.09.27.18,1.09.45,1.72.54-.18.64-.18,1.27-.18,1.72,0,.09,0,.45.09,1-.64.82-1.82,3.81-2,5.35Zm2.63.82c-.36,2.27-2,3.72-2,3.72v.09c-.09.09-.09.18-.18.18-.09-.27-.18-1.18-.18-2.18,0-.82.09-1.82.18-2.54.09-1.36,1.09-3.72,1.63-4.72,0,.09-.09.27-.09.45,0,.82.18,1.45.36,2.09.18.54.36,1.18.36,2,0,.27,0,.54-.09.91Zm2-6.81v.09c0,2.27-1.36,3.99-1.36,3.99h-.09v.09q0,.09-.09.18c-.27-.45-.73-2.99-.73-4.72v-.18c0-.45,0-1,.09-1.54.73-.09,1.27-.18,1.63-.36.36.64.54,1.36.54,2.45Zm2.09-5.54c.73.09,2,.45,1.91,1.45,0,.27-.18.54-.36.73-.54.45-1.45.64-2.18.54-.36,0-.64-.09-.91-.27l-.18-.09c.54-.36,1-.73,1.18-1l-.36-.36c-.64.64-2.36,1.91-3.63,1.91-.27,0-.73-.09-1.18-.18-.18-.09-.36-.09-.45-.18.27-.18.64-.45.91-.64l.09-.18c.27-.91,3.63-1.82,5.17-1.72Zm-3.27-.73c.45-.09.82-.27,1.09-.54h.09c.09.27.27.36.45.36.09,0,.18,0,.18-.09.09.09.18.09.36.09v.45c-.64.09-1.36.18-1.91.36,0,0-.09,0-.09-.09-.09-.18-.09-.36-.18-.54Zm3.27-3.27c.73,0,2,.36,1.91,1.45,0,.27-.18.54-.36.64-.54.45-1.45.73-2.18.64-.36-.09-.64-.18-.91-.27l-.18-.09c.54-.36,1-.73,1.18-1.09l-.36-.27c-.64.64-2.36,1.91-3.63,1.91-.27,0-.73-.09-1.18-.18-.18-.09-.36-.18-.45-.18.27-.27.64-.45.91-.73l.09-.09c.27-.91,3.63-1.82,5.17-1.72Zm-3.27-.73c.45-.09.73-.27,1.09-.54.09,0,.45.18.45.18.18,0,.36.09.64.18v.45c-.64,0-1.36.09-1.91.36,0,0,0-.09-.09-.09-.09-.18-.18-.36-.18-.54Zm3.27-3.27c.73,0,2,.36,1.91,1.36,0,.36-.18.54-.36.73-.54.45-1.45.73-2.18.64-.36-.09-.64-.18-.91-.27l-.18-.09c.54-.36,1-.82,1.18-1.09l-.36-.36c-.64.73-2.36,2-3.63,2-.27,0-.73-.09-1.18-.27-.18,0-.36-.09-.45-.18.27-.18.64-.36.91-.64l.09-.09c.27-1,3.63-1.82,5.17-1.72Zm-2.45-5.17c.36.91.45,1.72.45,2.45,0,1.09-.18,1.82-.18,1.82v.27c-.45-.27-1.72-2.45-2.54-3.99-.54-1.27-1-3.54-1.18-4.72.45.91,1.09,1.36,1.63,1.82.73.64,1.36,1.18,1.82,2.36Zm-1.72-6.35c.91,1.45,1.09,3.09,1.09,3.81v.54c-.54-.18-2.27-2.09-3.27-3.45-.82-1.09-1.72-3.45-2-4.54.64.82,1.27,1.18,1.91,1.63.82.45,1.45.91,2.27,2Zm-3.18-6.35c1.54,1.72,1.72,3.9,1.72,3.9v.09c0,.09.09.18.09.18-.54-.09-2.54-1.72-3.81-2.9-1-1-2.18-3.18-2.63-4.27.73.73,1.45,1.09,2.18,1.36.82.36,1.54.64,2.45,1.63Zm-4.36-5.99c1.72,1.45,2.27,3.54,2.27,3.63.09.09.09.18.09.18-.54,0-2.63-1.27-4.08-2.27-1.18-.82-2.81-2.81-3.45-3.81.82.54,1.63.82,2.36,1,.91.18,1.82.45,2.81,1.27Zm-2-1.82c.09.09.09.18.18.18-.54.09-2.9-.82-4.54-1.54-1.18-.54-3.09-2.18-3.9-3.09.91.45,1.72.45,2.54.54.91,0,1.72.09,2.9.73,1.91,1.09,2.81,3.09,2.81,3.18Zm-1.72-3.27c1.54-1.63,3.9-4.26,3.9-4.26,0,0,2.36-1.72-.45-4.63,1,1,3.08,1.82,4.99.27l8.89-8.17-8.44,8.71c-1.6,1.78-.85,3.91.04,4.85-2.7-2.74-4.49-.58-4.49-.58,0,0-2.72,2.36-4.45,3.81Z"/>
      <path class="cls-1" d="m31.4,65.34l-.27.64,1.45.73.36-.73c.18-.36.27-.54.27-.73.09-.45-.27-.73-.45-.82-.73-.36-1.09.36-1.36.91Z"/>
    </g>
  </g>
</svg>