<?xml version="1.0" encoding="UTF-8"?>
<svg id="Layer_2" data-name="Layer 2" xmlns="http://www.w3.org/2000/svg" viewBox="0 0 150 150">
  <defs>
    <style>
      .cls-1, .cls-2 {
        fill: #edcf85;
        stroke-width: 0px;
      }

      .cls-2 {
        fill-rule: evenodd;
      }
    </style>
  </defs>
  <g id="Layer_1-2" data-name="Layer 1">
    <g>
      <path class="cls-2" d="m127.98,22.02C114.41,8.44,95.63,0,74.98,0S35.65,8.44,22,22.02C8.44,35.65,0,54.37,0,74.98s8.44,39.37,22,53c13.64,13.58,32.35,22.02,52.98,22.02s39.43-8.44,53-22.02c13.58-13.62,22.02-32.35,22.02-53s-8.44-39.34-22.02-52.96Zm-1.08,104.83c-13.31,13.31-31.68,21.59-51.92,21.59s-38.51-8.28-51.84-21.59C9.81,113.59,1.55,95.18,1.55,74.98S9.81,36.41,23.14,23.14C36.47,9.83,54.82,1.55,74.98,1.55s38.61,8.28,51.92,21.59c13.27,13.27,21.55,31.68,21.55,51.84s-8.28,38.61-21.55,51.88Z"/>
      <path class="cls-2" d="m35.39,22.38l-.94,2.1,1.71,1.55-2.32-.26-.92,2.1-.51-2.26-2.22-.26,1.96-1.14-.47-2.26,1.69,1.55,2.02-1.14Zm-5.2,6.16l-.82,2.79,2.41,1.65-2.92.1-.77,2.77-1.04-2.67-2.89.06,2.28-1.75-.98-2.79,2.41,1.65,2.32-1.81Zm-5.5,9.01l-.12,3.55,3.4,1.12-3.43,1.08v3.49l-2.12-2.83-3.34.98,2.1-2.77-2.04-2.98,3.4,1.18,2.16-2.83h0Zm-3.96,11.27l.92,5.08,5.14.73-4.63,2.45.92,5.1-3.75-3.55-4.57,2.41,2.26-4.63-3.75-3.69,5.2.71,2.26-4.61h0Zm93.88-26.44l.98,2.1-1.75,1.55,2.32-.26.92,2.1.51-2.26,2.26-.26-2-1.14.51-2.26-1.75,1.55-2-1.14h0Zm5.24,6.16l.79,2.79-2.43,1.65,2.94.1.77,2.77,1.02-2.67,2.89.06-2.26-1.75.98-2.79-2.42,1.65-2.28-1.81h0Zm5.52,9.01l.04,3.55-3.34,1.12,3.4,1.08.04,3.49,2.06-2.83,3.36.98-2.12-2.77,2.06-2.98-3.4,1.18-2.1-2.83h0Zm3.91,11.27l-.88,5.08-5.18.73,4.61,2.45-.92,5.1,3.81-3.55,4.54,2.41-2.28-4.63,3.81-3.69-5.24.71-2.26-4.61h0Zm-79.85,36.84c-.16-.1-.47-.1-.63.06l-24.63,32.64c-.29.41-.2.98.12,1.35,4.22,4.61,8.54,8.52,13.56,12.07.31.22.88.67,1.14.06l2.63-6.18c.14-.35.04-.86-.26-1.08-2.63-1.75-4.89-3.79-7.11-5.91-.31-.31-.26-1.08,0-1.49l19.39-28.19c.1-.1,0-.35-.16-.41-1.45-.92-2.83-1.88-4.06-2.92h0Zm22.89,57.55c.35,0,.35-.26.35-.47l.35-47.72c0-.16-.2-.31-.35-.31-1.18-.04-2.41-.2-3.65-.35-.16-.06-.35.04-.47.26l-5.75,13.27c-.16.31-.26.26-.31-.06l-.45-14.9c0-.22-.06-.31-.16-.31-1.42-.5-2.81-1.09-4.16-1.75-.12-.06-.31-.06-.41.16l-17.33,41.69c-.09.2-.02.44.16.57,1.69,1.08,3.4,2,5.14,2.94.2.1.61.2.71-.16l10.66-29.84c.1-.35.2-.41.2.06l.47,25.3c0,1.33.1,1.33.67.1l10.13-22.53c.1-.29.2-.29.16.06l-2.63,32.92c-.04.2.22.45.41.51,2.12.31,4.22.47,6.28.57h0Zm17.35-45.46c-2.16.67-4.51,1.28-7.81,1.84-.16,0-.35.26-.35.47l.29,12.54c0,.2.16.51.53.47,3.12-.47,6.22-1.04,9.3-1.71.41-.1.57,0,.67.57l.77,4.93c.06.27.1.63-.26.73-3.4.82-6.83,1.49-10.29,2-.26.06-.57.16-.57.63l.31,13.01c0,.67.41,1.02.77.96,3.97-.26,7.93-1.33,11.78-2.31.26-.04.63-.14.73.41l1.02,6.79c.12.37-.26.73-.71.83-6.48,2-12.66,3.2-19.71,3.36-.51,0-.92-.16-.92-.63l.31-47.42c0-.26.45-.41.77-.41,4.53-.29,8.34-.92,12.29-2.41.47-.16.63-.1.63.12l.77,4.77c.06.31-.06.37-.31.47h0Zm10.09,40.73c-.16.04-.41.04-.47-.22l-8.54-46.54c-.04-.1,0-.16.16-.2,1.29-.57,2.57-1.24,3.81-1.9.1-.06.35-.1.35.04l11.84,44.85c.1.35.06.51-.1.63-2.3,1.21-4.65,2.33-7.05,3.34h0Zm37.18-60.57c-.31,1.53-.73,2.96-1.18,4.42-.06.1-.16.35-.47.26l-1.02-.57c-.16-.1-.35.06-.47.16l-1.59,3.97c-.1.26-.1.51.26.77l7.15,4.79c.26.16.73.2.88-.41,1.39-5.77,2-11.48,1.94-17.31,0-.26-.1-.51-.41-.63l-11.82-4.1c-.47-.22-1.18-.16-1.49.45-.91,1.75-1.89,3.47-2.92,5.14-.16.16-.41.47-.82.26l-5.81-2.83c-.27-.16-.47-.29-.27-.77l.94-2.06c.1-.26.45-.2.67-.1l2,.77c.2.1.45.1.57-.2l.92-2.47c.1-.2-.22-.47-.41-.57l-7.77-2.67c-.29-.1-.51.1-.61.31-.88,2.67-1.96,5.14-3.3,7.66-.26.47-.04.82.22,1.02l14.7,9.91c.26.16.73.16.98-.32,1.49-2.35,2.86-4.77,4.22-7.12.1-.16.26-.31.61-.16l4.06,1.81c.2.04.31.23.26.61h0ZM11.52,97.85c-.1-.26.2-.57.41-.73l29.72-18.82c.16-.1.47,0,.57.12.88,1.02,1.75,2.04,2.67,3.08.12.2.26.45.16.67l-21.75,35.65c-.16.2-.67.04-.82-.16-.88-1.14-1.75-2.22-2.51-3.45-.16-.2-.12-.57.04-.77l5.1-8.18c.26-.45.26-.71.1-1.18-.86-2.27-1.65-4.57-2.37-6.89-.04-.22-.51-.26-.71-.16l-8.13,5.46c-.22.1-.63.04-.73-.16-.61-1.43-1.24-2.98-1.75-4.48h0Zm24.28-9.93l-8.44,5.67c-.22.1-.31.41-.22.67.41,1.49.88,2.86,1.45,4.16.1.35.41.57.61.2l6.63-10.64c.06-.06,0-.1-.04-.06h0Zm89.76,32.15c-.16.16-.41.31-.61.06l-13.11-15.9c-.12-.16-.31-.31-.53-.16l-2.26,1.59c-.2.16-.47.37-.31.78l8.13,21.53c.12.26,0,.41-.16.57-2.09,1.65-4.27,3.2-6.52,4.63-.16.1-.41.2-.47-.06l-13.01-44.48.26-.35c3.4-2.22,5.81-4.02,8.5-7.05.96-1.08,2.1-.37,2.57.41l8.64,14.23c.82,1.29.77,3.14-.22,4.34l-.26.29,12.92,14.35c.26.26.2.51.04.67-1.18,1.61-2.3,2.98-3.59,4.53Zm-15.88-23.46l-3.55-6.99c-.12-.26-.31-.32-.57-.16-.77.51-1.55,1.18-2.37,1.69-.1.12-.1.22-.04.31l2.92,7.81c.06.12.16.22.31.12l3.08-2.22c.16-.1.35-.31.22-.57h0Zm28.58,1.9c-.04.16-.16.31-.35.22l-7.05-4.85c-.16-.04-.35-.04-.47.12l-2.92,7.4c-.06.2,0,.41.1.57l4.89,8.13c.08.13.11.3.06.45-.86,1.37-1.75,2.73-2.67,4.06-.06.1-.27.16-.37,0l-21.59-35.9c-.1-.14-.1-.29,0-.45.92-1.16,1.75-2.35,2.57-3.59.04-.1.2-.2.35-.1l28.91,18.61c.1.1.2.26.14.45-.45,1.59-.96,3.24-1.59,4.89h0Zm-12.76-8.28l-7.97-5.4c-.29-.2-.35-.16-.2.16l6.22,10.34c.1.16.35.51.57.04.2-.51,1.28-3.02,1.69-4.47.06-.3-.16-.51-.31-.67h0Zm-100.81-3.69c-2.28-2.89-4.28-6.12-6.18-9.66-.16-.35-.45-.35-.71-.26l-9.42,3.22c-.57.22-.67-.16-.67-.41-.2-2.2-.16-4.4-.16-6.56,0-.51.26-.73.57-.79l26.99-5.34c.31-.06.57.1.63.26,1.34,3.3,2.89,6.06,4.73,9.01.16.2,0,.55-.16.67l-14.7,10.05c-.31.22-.63.16-.92-.2h0Zm8.64-10.68c-.82-1.19-1.59-2.41-2.32-3.65-.06-.06-.16-.06-.26,0l-6.95,2.41c-.31.04-.26.26-.2.35.86,1.75,1.9,3.32,3.08,4.87.16.22.51.31.71.16l5.93-3.95s.04-.16,0-.2h0Z"/>
      <path class="cls-2" d="m64.03,19.57c3.4-2.01,6.6-4.35,9.54-6.99-10.66.41-20.16,5.44-26.62,13.11,5.69-.82,11.44-2.87,17.08-6.12Zm21.92,0c5.63,3.26,11.36,5.3,17.08,6.12-.68-.81-1.4-1.59-2.16-2.34-6.34-6.36-14.94-10.38-24.42-10.78,2.92,2.64,6.11,4.98,9.5,6.99h0Zm-34.19,40.24c-5.24-10.62-7.85-22.28-7.07-31.15-4.13,6.07-6.33,13.23-6.32,20.57,0,10.13,4.1,19.28,10.74,25.85,6.24,6.24,14.74,10.29,24.12,10.74-11.21-8.24-17.84-18.61-21.47-26.01Zm53.58-31.03c.73,8.83-1.9,20.47-7.11,31.03-5.1,10.46-12.5,19.41-21.49,26.01,19.33-.92,34.88-16.98,34.88-36.59.01-7.29-2.18-14.42-6.28-20.45h0Z"/>
      <g>
        <path class="cls-1" d="m61.36,26.54c.65-1.13,1.37-1.8,2.11-2.16h-1.6c-2.81,1.36-5.74,2.45-8.75,3.24h7.69c.18-.42.45-.9.55-1.08Z"/>
        <path class="cls-1" d="m74.98,15.49c-.88.92-2.32,2.16-4.16,3.55h8.36c-1.85-1.39-3.3-2.63-4.2-3.55Z"/>
        <path class="cls-1" d="m73.59,22.89c2.1-.82,4.2-1.14,5.85-1.14,2.22,0,4.34.56,6.21,1.55h.36c-1.94-1.02-3.75-2.16-5.3-3.18h-11.44c-1.53,1.02-3.34,2.16-5.3,3.18h8.72c.3-.15.6-.29.9-.41Z"/>
        <path class="cls-1" d="m89.25,26.03c.5.5.96,1.03,1.38,1.59h6.19c-3-.78-5.91-1.87-8.7-3.24h-.76c.67.49,1.3,1.04,1.88,1.65Z"/>
        <path class="cls-1" d="m65.52,44.95c0-.2-.16-.51-.47-.77-.61-.57-1.94-1.04-2.73-1.14.79-.16,2.12-.61,2.79-1.14.07-.07.12-.13.18-.2h-16.49c.28,1.08.53,2.16.82,3.24h15.9Z"/>
        <path class="cls-1" d="m65.52,33.07h-17.9c.06,1.08.16,2.16.31,3.24h17.59v-3.24Z"/>
        <path class="cls-1" d="m65.52,37.45h-17.49c.16,1.02.35,2.1.57,3.18h16.92v-3.18Z"/>
        <path class="cls-1" d="m65.52,30.03c0-.35-.06-.61-.22-.86-.07-.15-.16-.29-.26-.41h-17.37c-.1,1.02-.1,2.1-.1,3.24h17.94v-1.96Z"/>
        <path class="cls-1" d="m69.23,25.67c.52-.48,1.06-.91,1.62-1.29h-3.92c.89.34,1.69.86,2.3,1.29Z"/>
        <path class="cls-1" d="m79.42,46.03c.1.02.22.04.33.06.24,0,.48-.02.73-.06h-1.07Z"/>
        <path class="cls-1" d="m72.51,41.71v3.24h.01c0-.09.02-.17.05-.26.04-1.14.39-2.19,1.06-2.98h-1.12Z"/>
        <path class="cls-1" d="m80.66,41.71c.24.45.33.94.33,1.43,0,.65-.19,1.3-.56,1.81h2.64c1.23-.83,2.23-2.01,2.51-3.24h-4.92Z"/>
        <path class="cls-1" d="m72.51,40.63h2.44c.61-.32,1.34-.51,2.23-.51.16,0,.29,0,.51.04.77.04,1.41.21,1.9.47h6.08c-.04-.53-.2-1.03-.36-1.55-.19-.51-.37-1.04-.44-1.63h-12.36v3.18Z"/>
        <path class="cls-1" d="m72.51,33.07v3.24h12.33c.05-.96.37-1.61.66-2.22.17-.34.33-.66.42-1.02h-13.42Z"/>
        <path class="cls-1" d="m83.15,27.58c-1.14-.78-2.53-1.24-4.34-1.24-1.14,0-2.48.49-3.59,1.28h7.99s-.04-.03-.05-.04Z"/>
        <path class="cls-1" d="m84.41,28.76h-10.52c-.82.85-1.38,1.83-1.38,2.77v.47h13.47c-.04-.26-.11-.55-.22-.88-.31-.84-.77-1.65-1.35-2.35Z"/>
        <path class="cls-1" d="m74.85,49.27c-.08-.05-.15-.1-.22-.16-1.04-.73-1.84-1.8-2.06-3.08h-.06v3.24h2.34Z"/>
        <path class="cls-1" d="m92.87,31.99h9.55c0-1.14,0-2.22-.1-3.24h-10.92c.62,1.01,1.11,2.1,1.46,3.24Z"/>
        <path class="cls-1" d="m65.52,59.04h-10.5c.53,1.08,1.14,2.16,1.71,3.24h8.79v-3.24Z"/>
        <path class="cls-1" d="m79.63,50.56c-.64.01-1.28-.04-1.9-.16h-5.23v3.24h24.99c.41-1.14.8-2.22,1.22-3.24h-17.4c-.55.09-1.11.15-1.68.16Z"/>
        <path class="cls-1" d="m88.99,46.09c-1.24,1.29-2.68,2.39-4.26,3.18h14.35c.35-1.08.71-2.16,1.02-3.24h-11.06s-.04.04-.05.06Z"/>
        <path class="cls-1" d="m72.51,57.96h23.02c.51-1.07,1.01-2.15,1.49-3.24h-24.51v3.24Z"/>
        <path class="cls-1" d="m72.51,66.6h18.08c.73-1.08,1.39-2.16,2.06-3.24h-20.14v3.24Z"/>
        <path class="cls-1" d="m72.51,62.28h20.77c.6-1.07,1.18-2.15,1.75-3.24h-22.51v3.24Z"/>
        <path class="cls-1" d="m90,44.95h10.42l.77-3.24h-9.14c-.54,1.13-1.23,2.23-2.05,3.24Z"/>
        <path class="cls-1" d="m93.47,36c0,.1,0,.21,0,.32h8.64c.12-1.08.22-2.16.26-3.24h-9.21c.21.95.32,1.93.32,2.92Z"/>
        <path class="cls-1" d="m92.52,40.63h8.88c.26-1.08.41-2.16.55-3.18h-8.58c-.14,1.05-.43,2.12-.85,3.18Z"/>
        <path class="cls-1" d="m72.51,70.92h15c.82-1.06,1.61-2.14,2.37-3.24h-17.37v3.24Z"/>
        <path class="cls-1" d="m65.52,46.03h-15.58c.31,1.08.61,2.16.98,3.24h14.6v-3.24Z"/>
        <path class="cls-1" d="m60.63,66.6h.49c1.43,0,3-.1,3.82-1.43.5-.69.56-1.49.57-1.81h-8.12c.62,1.11,1.29,2.19,2,3.24h1.24Z"/>
        <path class="cls-1" d="m65.52,54.72h-12.5c.47,1.08.92,2.16,1.45,3.24h11.05v-3.24Z"/>
        <path class="cls-1" d="m65.52,50.41h-14.19c.35,1.02.77,2.1,1.24,3.24h12.95v-3.24Z"/>
        <path class="cls-1" d="m69.11,69.84c-.51-.45-.92-1.08-1.18-1.65-.82.67-1.69,1.14-2.67,1.2-1.21.08-2.92-.66-3.93-1.71h-1.21c.77,1.14,1.53,2.16,2.35,3.24h8.23c-.57-.25-1.11-.59-1.6-1.08Z"/>
        <path class="cls-1" d="m66.19,75.2h17.63c.96-.98,1.94-2.06,2.83-3.2h-23.28c.92,1.14,1.85,2.22,2.83,3.2Z"/>
        <path class="cls-1" d="m70.66,79.49h8.72c1.17-1.03,2.31-2.1,3.39-3.22h-15.56c1.1,1.13,2.25,2.2,3.46,3.22Z"/>
        <path class="cls-1" d="m74.98,82.99c1.06-.77,2.1-1.56,3.12-2.37h-6.2c1.02.82,2.06,1.61,3.08,2.37Z"/>
      </g>
      <path class="cls-2" d="m62.85,67.52c.86.57,1.65.83,2.36.79,1.39-.12,2.73-1.45,3.3-2.22.04.82.41,2.1,1.33,2.98.47.41,1.01.74,1.59.98V31.52c0-1.53,1.04-3.08,2.41-4.22,1.43-1.22,3.38-2.1,4.97-2.04,2.02,0,3.67.55,4.95,1.43,1.43,1.02,2.41,2.47,3.04,4.06.67,1.84.2,2.77-.31,3.81-.26.61-.63,1.28-.57,2.26,0,.73.22,1.34.41,1.9.32.98.61,1.9.35,3.14-.61,2.83-4.1,5.34-6.99,5.3-.69-.06-1.37-.27-1.96-.63-1.28-.86-1.37-2.16-1.18-2.98.22.37.88.98,1.49,1.14.16.1.31.1.51.1.94,0,1.35-.82,1.35-1.65,0-.51-.12-.96-.53-1.33-.35-.29-.92-.51-1.79-.57-.16-.04-.31-.04-.41-.04-1.24,0-2.06.41-2.55,1.02-.63.67-.94,1.59-.98,2.57-.06.16-.06.37-.06.51,0,1.24.67,2.22,1.57,2.94,1.2.83,2.85,1.28,4.48,1.24,3.3-.06,6.34-1.75,8.6-4.18,2.57-2.67,4.16-6.22,4.16-9.3,0-3.49-1.49-6.79-3.91-9.24-2.32-2.37-5.55-3.93-9.05-3.93-1.55,0-3.49.28-5.44,1.08-1.53.63-3.02,1.55-4.32,2.85l-.31.35-.35-.26c-.82-.57-2.16-1.55-3.49-1.75-1.02-.1-2.12.26-3.04,1.69.83-.1,1.71.06,2.41.47.63.31,1.14.83,1.39,1.43.22.41.31.82.31,1.33v11.17c0,.51-.26,1.08-.77,1.53-.16.12-.31.22-.47.31.16.1.31.22.41.31.57.51.83,1.12.83,1.59v18.31c0,.31-.06,1.43-.73,2.51-.51.82-1.43,1.55-3.02,1.74h0Z"/>
      <path class="cls-1" d="m74.98,11.51c5.06,0,9.99,1,14.63,2.97,2.23.95,4.38,2.12,6.4,3.49,2,1.35,3.88,2.91,5.58,4.62,1.71,1.71,3.26,3.59,4.61,5.59,1.36,2.02,2.54,4.17,3.48,6.41,1.97,4.65,2.97,9.57,2.97,14.64s-1,10.01-2.97,14.65c-.95,2.23-2.12,4.38-3.48,6.4-1.35,2-2.9,3.87-4.61,5.58-1.71,1.71-3.59,3.26-5.58,4.61-2.02,1.36-4.17,2.53-6.4,3.48-4.64,1.97-9.56,2.96-14.63,2.96-20.77,0-37.66-16.91-37.66-37.68,0-5.07,1-10,2.97-14.65.95-2.23,2.12-4.39,3.48-6.41,1.35-2,2.9-3.88,4.61-5.59,1.71-1.71,3.58-3.26,5.58-4.62,2.01-1.37,4.17-2.54,6.4-3.49,4.64-1.97,9.57-2.97,14.63-2.97m0-1.63c-21.65,0-39.3,17.71-39.3,39.35,0,21.69,17.65,39.31,39.3,39.31,21.63,0,39.32-17.63,39.32-39.31S96.61,9.87,74.98,9.87h0Zm0,78.67h0s0,0,0,0h0Z"/>
    </g>
  </g>
</svg>