<?xml version="1.0" encoding="UTF-8"?>
<svg id="Layer_2" data-name="Layer 2" xmlns="http://www.w3.org/2000/svg" viewBox="0 0 151.48 150">
  <defs>
    <style>
      .cls-1, .cls-2 {
        fill: #edcf85;
        stroke-width: 0px;
      }

      .cls-2 {
        fill-rule: evenodd;
      }
    </style>
  </defs>
  <g id="Layer_1-2" data-name="Layer 1">
    <g>
      <path class="cls-1" d="m119.19,3.02l20.74,22.35c-12.2,8.98-11.76,23.39,1.34,43.22,8.01,12.13,9.85,24.8,5.6,38-5.36,16.55-18.23,25.47-38.63,26.77-12.7.8-23.52,5.26-32.47,13.4-8.98-8.14-19.8-12.6-32.5-13.4-20.41-1.31-33.27-10.22-38.63-26.77-4.29-13.2-2.41-25.87,5.63-38,13.07-19.84,13.5-34.24,1.31-43.22L32.3,3.02c.77.44,1.57.87,2.38,1.31,11.36,5.9,25.03,8.85,41.08,8.88,16.02-.03,29.69-2.98,41.01-8.88.8-.44,1.61-.87,2.41-1.31M31.83,0l-1.29,1.39L9.81,23.74l-1.83,1.97,2.16,1.59c11.08,8.16,10.46,21.23-1.89,39.98C-.17,79.98-2.16,93.46,2.35,107.33c5.66,17.49,19.38,27.05,40.76,28.42,12.09.76,22.53,5.07,31.05,12.79l1.61,1.46,1.61-1.46c8.48-7.72,18.91-12.02,31.01-12.78,21.38-1.37,35.1-10.93,40.76-28.43,4.48-13.89,2.5-27.37-5.88-40.06-12.38-18.74-13-31.81-1.92-39.98l2.16-1.59-1.83-1.97L120.94,1.39l-1.26-1.36-1.63.88-.97.52-1.43.77c-10.9,5.67-24.33,8.57-39.89,8.6-15.57-.03-29.02-2.93-39.95-8.6-.77-.42-1.57-.85-2.32-1.28l-1.65-.93h0Z"/>
      <path class="cls-2" d="m55.39,132.76c4.83,1.31,9.35,3.25,13.57,5.76l.03-64.97-13.6,8.78v50.43Z"/>
      <path class="cls-2" d="m82.56,138.52c4.22-2.55,8.75-4.49,13.6-5.8V55.96l-13.6,8.78v73.78Z"/>
      <path class="cls-2" d="m28.18,127.83c4.02,1.47,8.54,2.41,13.6,2.88v-39.57l-13.6,8.78v27.91Z"/>
      <path class="cls-2" d="m14.58,118.99v-10.25l-4.96,3.18c1.37,2.61,3.02,4.96,4.96,7.07Z"/>
      <path class="cls-2" d="m109.74,130.71c5.06-.47,9.58-1.44,13.6-2.92l.03-89.43-13.64,8.78v83.57Z"/>
      <path class="cls-2" d="m139.12,69.96c-.77-1.14-1.51-2.31-2.18-3.42v52.41c3.28-3.59,5.8-7.97,7.51-13.14,4.02-12.46,2.24-24.39-5.33-35.85Z"/>
      <path class="cls-2" d="m111.98,37.66v-9.15l-7.87,4.79v5.8l-4.36,2.92c-.5.27-.87.23-1.07-.1-.17-.27-.23-.77-.27-1.57l-.17-10.12c.07-.57.27-1.04.6-1.37l4.62-3.42c1.01-.8,1.54-.77,1.61.07v1.07l6.9-4.59v-6.1c-.37-.9-1.17-1.11-2.38-.54l-17.72,11.73c-1.07,1.14-1.61,2.28-1.68,3.45v19.8c.37,2.48,1.54,3.15,3.55,2.08l15.55-9.85c1.41-1.21,2.31-2.85,2.68-4.89Z"/>
      <polygon class="cls-2" points="53.91 56.33 57.13 54.38 57.13 70.9 54.02 73.01 54.08 77.7 69.36 68.05 69.36 63.26 65.31 65.88 65.31 59.64 69.29 57.06 69.29 60.41 73.42 57.67 73.42 47.31 69.63 49.93 69.63 51.8 65.21 54.35 65.21 49.09 70.7 45.44 72.14 46.14 77.04 42.96 77.04 36.32 53.91 51.33 53.91 56.33"/>
      <polygon class="cls-2" points="42.69 85.11 49.29 80.75 49.29 74.42 42.69 78.58 42.69 85.11"/>
      <polygon class="cls-2" points="85.45 51.13 78.84 55.29 78.84 61.79 85.45 57.47 85.45 51.13"/>
      <path class="cls-2" d="m38.47,84.04l-.1-8.01c-1.17-1.71-2.98-2.04-5.39-.94l-7.27,4.46c-.7.27-1.11-.03-1.24-.8v-2.51c-.07-.37,0-.74.23-1.07.23-.33.64-.7,1.31-1.14l3.55-2.28c.84-.47,1.37-.37,1.54.37v1.84l7.37-4.56v-4.76c-.2-.67-.47-1.11-.84-1.34-.5-.27-1.24-.3-2.28-.03l-16.38,10.15c-1.71,1.11-2.48,2.24-2.28,3.45l.03,8.61c.13,1.31.6,2.01,1.41,2.08.84.1,2.04-.44,3.65-1.58l6.84-4.36c1.31-.5,2.11-.47,2.38.1v5.6l-5.5,3.69c-.9.5-1.27.13-1.14-1.07v-3.12l-7.67,4.76v5.83c-.03,2.45,1.01,3.18,3.12,2.18l16.59-10.69c1.44-.77,2.11-2.41,2.08-4.86Z"/>
      <polygon class="cls-2" points="123.04 27.24 116.44 31.4 116.44 37.93 123.04 33.61 123.04 27.24"/>
      <g>
        <path class="cls-2" d="m43.86,35.69c.44-.4.97-.74,1.64-.97.3-.13.54-.2.84-.27.87-6.7-1.31-12.77-6.67-18.23-2.61.47-4.96,1.68-7,3.55-.07,9.28,3.65,14.58,11.19,15.92Z"/>
        <path class="cls-2" d="m43.03,37.09c-7.57-1.51-11.53-6.74-11.86-15.71-2.11,2.58-3.15,5.56-3.15,8.95,0,1.27.13,2.45.44,3.59,4.76,3.38,9.62,4.42,14.58,3.18Z"/>
        <path class="cls-2" d="m48.29,35.59c-.17-.1-.37-.17-.6-.2-.2-.03-.4-.03-.57-.03-.4.03-.84.13-1.24.3-.67.27-1.21.6-1.54,1.04h-.03s-.03.07-.03.07c-.23.3-.27.54-.17.77.13.23.37.37.74.44.07,0,.13,0,.2.03.5,0,1.04-.1,1.61-.3.47-.17.87-.4,1.17-.67.13-.1.23-.23.34-.37.2-.2.3-.4.33-.57.03-.1,0-.17,0-.23v-.03c-.07-.1-.13-.17-.2-.23Z"/>
        <path class="cls-2" d="m47.98,34.38c.07.03.13.03.17.07,3.08-4.86,2.75-10.76-1.11-17.62,0-.03,0-.07-.03-.1-1.47-.47-2.98-.74-4.66-.74-.27,0-.5,0-.77.03,5.06,5.53,7.17,11.66,6.4,18.36Z"/>
        <path class="cls-2" d="m43.7,38.74c-.13-.07-.2-.13-.3-.17-4.79,1.24-9.48.47-14.14-2.31.7,1.54,1.68,2.91,2.98,4.22.03.03.07.07.13.1,5.03.9,8.81.27,11.33-1.84Z"/>
        <path class="cls-2" d="m75.76,15.75c-16.49-.03-30.56-3.08-42.25-9.18-.23-.1-.47-.23-.7-.37L15.31,25.1c11.33,9.75,10.35,24.73-2.95,44.87-.77,1.17-1.51,2.38-2.14,3.55L106.15,11.46c-8.98,2.85-19.13,4.26-30.39,4.29Zm-22.22,25.83c-3.12,3.08-6.87,4.66-11.23,4.66-4.12,0-7.64-1.37-10.62-4.12-.2-.17-.4-.37-.6-.54-3.12-3.12-4.66-6.87-4.66-11.23s1.54-8.14,4.66-11.22c3.12-3.12,6.84-4.69,11.23-4.66,4.36-.03,8.11,1.54,11.23,4.66,3.08,3.08,4.66,6.84,4.66,11.22s-1.57,8.11-4.66,11.23Z"/>
        <path class="cls-2" d="m49.22,36.89c-.03.1-.1.17-.17.27,1.61,1.24,3.22,1.81,4.83,1.74,1.74-2.31,2.71-4.96,2.81-7.94-1.71,3.52-4.19,5.5-7.47,5.93Z"/>
        <path class="cls-2" d="m49.22,17.73c3.38,6.8,3.45,12.7.17,17.62,3.15-.67,5.43-3.08,6.84-7.24.07-.23.13-.47.2-.67-.54-2.75-1.84-5.16-3.95-7.24-1.01-1.01-2.08-1.84-3.25-2.48Z"/>
        <path class="cls-2" d="m45.61,38.97v.03c-2.35,2.68-5.96,3.85-10.86,3.52,2.24,1.44,4.79,2.14,7.61,2.18.6-.03,1.21-.07,1.78-.1,1.57-1.41,2.24-3.32,2.01-5.7-.17.03-.37.07-.54.07Z"/>
        <path class="cls-2" d="m47.62,38.37c.27,2.28-.07,4.15-1.07,5.73,2.21-.67,4.19-1.88,5.93-3.62.03-.03.07-.07.1-.1-1.54-.2-3.12-.94-4.66-2.18-.1.07-.2.13-.3.17Z"/>
      </g>
    </g>
  </g>
</svg>