<?xml version="1.0" encoding="UTF-8"?>
<svg id="Layer_2" data-name="Layer 2" xmlns="http://www.w3.org/2000/svg" viewBox="0 0 150.19 150">
  <defs>
    <style>
      .cls-1 {
        fill: #edcf85;
        stroke-width: 0px;
      }
    </style>
  </defs>
  <g id="Layer_1-2" data-name="Layer 1">
    <g>
      <path class="cls-1" d="m53.67,31.42h12.78c1.19.06,2.34-.37,3.2-1.2,1.01-1.06,1.5-2.52,1.34-3.98v-7.17c-.05-1.2-.53-2.35-1.34-3.25-.84-.85-2.01-1.26-3.2-1.13h-18.83v26.46h6.05v-9.75Zm-.12-11.14h9.65c.51-.03,1.01.13,1.4.46.83,1.51.83,3.33,0,4.84-.4.3-.9.44-1.4.4h-9.65v-5.7Z"/>
      <polygon class="cls-1" points="84.53 31.49 97.85 31.49 97.85 25.92 84.53 25.92 84.53 19.82 102.37 19.82 102.37 14.64 79.01 14.64 79.01 41.22 84.53 41.22 84.53 31.49"/>
      <path class="cls-1" d="m115.62,41.33h12.99c4.12,0,5.33-3.12,5.33-6.35v-3.4s-5.93,0-5.93,0c.07,2.31-.53,3.57-1.8,3.71h-8.52c-.93,0-1.94-1.66-1.94-2.19v-10.26c.06-1.34,1.03-2.46,2.34-2.72h8.19c1.45,0,1.8,1.2,1.8,3.97h5.72v-5.5c-.32-2.47-2.52-4.24-5-4.04h-13.24c-3.47,0-5.33,1.92-5.33,4.04l.07,16.38c0,3.84.74,6.35,5.32,6.35Z"/>
      <path class="cls-1" d="m20.36,30.38h12.38c1.12,0,1.12,4.76,0,4.76h-16.31v6.02h20.17c1.39,0,3.12-2.58,3.12-3.77l.07-8.46c0-3.39-2.99-3.98-5.33-3.98h-11.05c-1.46,0-1.54-4.98,0-4.98h16.31v-5.24h-16.77c-3,0-6.59-.47-6.59,3.85l.07,8.89c0,1.59,2.47,2.92,3.93,2.92Z"/>
      <path class="cls-1" d="m0,0v58.34l75.1,91.66,75.09-91.82V0H0Zm63.34,122.48L8.57,55.72h54.77v66.76Zm23.51,0V55.72h54.76l-54.76,66.76Zm55-75.09H8.35V8.42h133.51v38.97Z"/>
    </g>
  </g>
</svg>